<mxfile host="app.diagrams.net" modified="2024-04-06T16:22:49.768Z" agent="Mozilla/5.0 (Windows NT 10.0; Win64; x64) AppleWebKit/537.36 (KHTML, like Gecko) Chrome/123.0.0.0 Safari/537.36" etag="tRsuFZ-BLE419aNi70Px" version="24.2.2" type="device">
  <diagram name="PÃ¡gina-1" id="3Vn5-onAT9Syc9Rw1Z2l">
    <mxGraphModel dx="1047" dy="2057" grid="1" gridSize="10" guides="1" tooltips="1" connect="1" arrows="1" fold="1" page="1" pageScale="1" pageWidth="827" pageHeight="1169" math="0" shadow="0">
      <root>
        <mxCell id="0" />
        <mxCell id="1" parent="0" />
        <mxCell id="QgZdvH6-Uv-4IUFap3HK-1" value="" style="shape=image;verticalLabelPosition=bottom;labelBackgroundColor=default;verticalAlign=top;aspect=fixed;imageAspect=0;image=data:image/png,iVBORw0KGgoAAAANSUhEUgAAAxwAAADPCAYAAAB/RdcUAAAAAXNSR0IArs4c6QAAAARnQU1BAACxjwv8YQUAAAAJcEhZcwAADsMAAA7DAcdvqGQAAA8ASURBVHhe7d09qxxHmwbg0aYOhRdh1pHT17CBQDgydiY5NSg1jjfxL3GysTMHAgeOlDq0ZRQs+I0MjryBWNAfcKLVI09BvUV/TXc/c2pmrguaMzP10R9zDtR9qnrm3pu3DgAAAAn+7fgTAABgdwIHAACQRuAAAADSCBwAAEAagQMAAEgjcAAAAGkEDgAAII3AAQv8+8dfHx8BAHAKgQNmZIeN6F+gAQCulW8a5+zK4Pr/fvvu3c9etSFg6/EOnffe+8gwFIZ6f+8AgH7sHjiGBictg5Xzqd+PXq770MC7NxnXbey8e78e9bUoen7vAIC+WFIFI2JQfY6B9bn2s1bvxwcA9C0tcJRBytAGvfN7CgCwj7QlVUsGbHXdetlG23ZqScfc/ta0rV8fah/qNlP7GLOk39qpxxTG6oWldefOY8xQf6Wv+lyGnONYwlR/a49hzXmPvV6s6bMYahvG6k+p+1rTHgC4TV0EjlY7mFqi3d+52k4ZugZL+l7bLtRtp9osrVcMHdOQU65d2+eexxHW9rem3R7nvWefYe35j6n7O6UdAHDbugocUwOuqbJwV23D2vZ3XRa2tB2ytL9wyv4yj6UuW3sMS8vCWHlGn+GUsilr2wEAty3tHo4YnLTblFMHRVMDni1ta0vantL/Hsc1127uOtdOOZ4l/W45vz2uTW1Nf2uvx97HHrb0ufY8AAAydPEpVWsGZGFtu7Cl7VZL9n2tA8G5cz/ntYl9nev3IGM/5zp2AIAtzvopVWusbRe2tM0UA+ax7S5MXac113DLdR+6JmVbY+/j3/tazdnS57mPFQBgiO/hAAAA0nQfOKb+sz33X+8tbTPFf5eXbOey93Xa0t/QdRjaljrn8W857zFb+sw4HgCAU5nhuANzA8FbHgye89rc+rUGADiHbgNH/V/soUHh1EBxS9tMvR3XKcezZFahp/dsTX9rr8fexx629Ln2PAAAMnTzTeNj5gZWU32sbTt3XHW/c3VOPa4w1ebUYxrb15I6xdg+x0z1F31NncuexzLXV9jzGNae99jrYW2fYaptGGozpe7v1LYAwO3qfknV2MBmyYBnS9tMU/vf+9i2XKew5njG2pz7WKL+mv7WHsOa/uZs6XPNsQIA7G33GY5LMvXfYbgEfocBgN65aRwAAEhzlYEj/utbtjFTZXDX/A4DANfiapdUtYOxeslJXWYpCr3yOwwAXIOrvodjyX+ADdbomd9hAODS3cRN40ODNoM0LonfYQDgUt30p1QBAAC5fEoVAACQRuAAAADSCBwAAEAagQMAAEgjcAAAAGkEDgAAII3AAQAApBE4AACANAIHAACQRuAAAADSCBwAAEAagQMAAEgjcAAAAGkEDgAAII3AAQAApBE4AACANAIHAACQRuAAAADSCBwAAEAagQMAAEgjcAAAAGkEDgAAIM29N28dH+/m2bNnh+fPnx9evnx5ePXq1fFVAABgqwcPHhwePnx4ePLkyeHp06fHV/u1a+D4888/D998883hp59+Or4CAABk+eyzzw7ffvvt4cMPPzy+0p9dA8fjx48Pv/766/EZAACQ7dGjR+9WF/Vqt3s4vv/+e2EDAADO7MWLF+/G4r3aLXD8+OOPx0cAAMA59TwW3y1w/Pbbb8dHAADAOfU8Ft/tHo779+8fHwEAAOf2+vXr46O++B4OAAAgjcABAACkETgAAIA0AgcAAJBG4AAAANIIHAAAQBqBAwAASCNwAAAAaQQOAAAgjcABAACkETgAAIA0AgcAAJBG4AAAANIIHAAAQJp7b946Pt7k/v37x0c5vvz5j+Ojv/3wyUfHR30ox3fO4/rv//mPw3/95/8en50u2hdD/cyVn+r169f/8nvSPt8i+grZv4cAAL0q46HeXMQMRz2YL9s5xf7bwHMNIkRMBYm58lMMhYt4vscfRulb2AAA6M/FLKm66xmNuf3fRRC6FENho9grdAAA0KeLv4ejnXmon5fHZYairVvU5XWd+vlQeTH2ejHWtjwfK18qlj7Vy59qpWyqzhbZ/QMAcNm6Dhz1IHztoDzqT80+1OVtvfr5UHko7ce0/bfHP3d8c2KQX5Y+tQP+8rxeGrVnKFjS/9TsRmGWAwDgenUdOOqBeHlcD8zbwfup5sJCmNvHVPsl/W9VBvpj6vK5umtk9w8AwGXrfknVKQP+obp7DPgzQ0N2IIkZh3q7JjErsmQGBQCAu3Px93C0xgbwc8Fliz1mMrKOL2Yd2u1aRNCwHAsAoG8XETiWDObbAXvWbMcWdTA51/Flz2rU/V/bDAoAANt1/8V/9SC9VQ/ao047oK/bjfVT9xHm6pxaPlbWHk/7fIkY4NczFu3zMBQCSp2xgLC0PLR12v2HuWVPW5dFWVYFAPD3mKhHFx04uAwCBwBAvl4DR/cfi8vlizAw9gcgLAAAXLcuZzjGliFx2dpwsWfYKIFGeAEAbtXYP3jvWvdLqgAAgHm9Bo6r+1hcAACgHwIHAACQRuAAAADSCBwAAEAagQMAAEgjcAAAAGkEDgAAII3v4bhg9WctZ1z/c38B49gXAf7zxdfvfv7j0XfvfhbxevvaKUq/YY9+2j7GzgcAIIPv4WB3MZjNHNBGyDjXN73fxeA8AsKWoDEnzqfXP3wAgHMROLhz1zwTIHQAALfOkqoZ7WCxPc+p8jKQLnWGrtGW/ouynyFL2s+JpVVjMx31sqvQ1mvLQ1tn6vinlCVVY0uaQr1sKozVmZrpmOp/ibnzK+/RmmsAAFC0475emOFYIAaCZavVA8VS1r7RZbAZ21RZ2WpL+p+ytf2cEibqpVd1wChBpS4vP4tyDdYqYSG2NlzUQaGEhbbOnKn+l4rz2/O6AwBcEoFjwpLBcF0+VHfLYDrM9T9na/s5dYBow8Q5lCAxpi6fqztkTZtTxfuS8d4AAPRA4LhDMciMUFO2DHX/Wfu4ZjGrUTYAAE4ncNyx8t/tEj72VvdftnOKZVVlu4sZkC3q5VTnmOkAALhGAseMuRBQl2cEhq39L2kTddYee3vPRitCRtnuQj0zsWWWInOGY8v1BwDonU+pmtEOBNvznCqPsrnntaFrONf/kLk67X5Knfb1oQAR6vDQ1pkqC0PBI/Y/dO5zygxE0T4PbVBo6w+ZqrNmpmPu/MauPwDAKYbGfT0QOEgTgaMNGEOvrQ0cl2LJ+V37NQAA8vUaOCyp4s7FQLvXP5Ct5oJElAsbAMA1M8NBqqklV61rG3gLEgDAOcXYo0cCBwAAXIFeA4clVQAAQBqBAwAASCNwAAAAaQQOAAAgjcABAACkETgAAIA0AgcAAJCm+8ARnyfc62cKAwAA07oPHPGFgrEJHQAAcHksqQIAANIIHAAAQBqBAwAASCNwAAAAaS4mcJQbx908DgAAl+NiAkcEjfKJVQAAwGWwpAoAAEgjcAAAAGkEDgAAII3AAQAApOk+cJRPpnKzOAAAXJ7uA4dPpgIAgMtlSRUAAJBG4AAAANIIHAAAQBqBAwAASCNwAAAAaQQOAAAgjcABAACk6TpwfPnzH8dH60T7sg2ZKz9VfEFhrX0OAAC35qpnOH745KN325i58lMMfRt6PBc6AAC4ZZZU7WAobBRCBwAAt+wiAsfSZVFjdbbI7j9EIBFKAAC4Rt0Hjhjkl6VP7YC/PK+XRu0ZCpb0PzW7UZjlAADgVnUfOMpAf0xdPld3jez+QwSSudACAACX6OLv4YgZh3oDAAD6cfGBI2Yd2g0AAOjDVcxwZKr7z9qXm8YBALhW9968dXy8ScY9CDHAr2cs2udhKASUOmMBYWl5aOu0+w9zN44vKQ/u4wAAYK1e/4HddeC4FFsDR1hSBwAAxvQaOC5+SVUPIiiMvcFLwoiwAQDAtRI4djIUOpYEiSgXNgAAuFYCx47a4CBIAABw6wQOAAAgjcABAACkETgAAIA0AgcAAJBG4AAAANIIHAAAQBqBAwAASHPvzVvHx5vc4ndO1F/0l3H+X/78x/HR4fDDJx8dH+UZ+6LCf774+t3Pfzz67t3PDFv2MdbWN7gDALek/RLqXpjh2CAGs5kD2ggZ5wgaYc3gPAb69dabOJ9e//AAAG6FwMGmmYCYVSjbltBR+tib0AEAcLe6X1LVDhbb/UyVl4F0qTN0jFv6L8p+hixpPyeWVo3NdNTLrkJbry0PbZ2p458SAaMNCe1rbQiZKgtD/dXWhJK58yvv0ZprAADQi3bc2YuLmOGIgWDZavVAsZS1F7oMNmObKitbbUn/U7a2n1PCRL30qg4YJajU5eVnUa5BhhIWIiSUoFAHiPJ6XV6ba79UnN+e1x0AgOW6DhxLBsN1+VDdrYPpuf7nbG0/pw4QbZjoQR0khkLFnK3tl4j3JeO9AQDgxu/hiEFmhJqyZaj7z9oHAAD06uZvGi//3S7hY291/2U7p1hWVbYeZ0AAALhu3QeOuRBQl2cEhq39L2kTddYee3vPRitCRtmyxf0V7bKn+p6LNfdfbG2/xJbrDwDAtJv4lKpi6Hlt6Bzm+h8yV6fdT6nTvj4UIEIdHto6U2VhKHjE/ofOfU4bAIbusVhSp4i6U4ElrLmPY+78xq4/AMAlGRp39sA3jV+xCBxtwBh6bW3g2NtQ4NjDkvPr5RoAAKzVa+C4+Xs4+Dss3vUvaDuTsZe5IBHlwgYAQB4zHFduaslV69wD7z2WS00RJACAWxJjnx4JHAAAcAV6DRyWVAEAAGkEDgAAII3AAQAApBE4AACANAIHAACQRuAAAADSCBwAAEAagQMAAEgjcAAAAGkEDgAAII3AAQAApBE4AACANAIHAACQZrfA8f777x8fAQAA59TzWHy3wPHxxx8fHwEAAOfU81h8t8Dx1VdfHR8BAADn1PNYfLfA8cUXXxw+//zz4zMAAOAcHj9+/G4s3qt7b946Pt7s999/P3z66aeHv/766/gKAACQ5b333jv88ssvhw8++OD4Sn92DRzFs2fPDs+fPz+8fPny8OrVq+OrAADAVg8ePDg8fPjw8OTJk8PTp0+Pr/YrJXAAAAAE38MBAACkETgAAIA0AgcAAJBG4AAAANIIHAAAQBqBAwAASCNwAAAAaQQOAAAgjcABAACkETgAAIA0AgcAAJBG4AAAANIIHAAAQJLD4f8BD1vqTzLEH9UAAAAASUVORK5CYII=;" vertex="1" parent="1">
          <mxGeometry y="10" width="346.09" height="90" as="geometry" />
        </mxCell>
        <mxCell id="QgZdvH6-Uv-4IUFap3HK-4" value="" style="group" vertex="1" connectable="0" parent="1">
          <mxGeometry x="50" y="130" width="90" height="60" as="geometry" />
        </mxCell>
        <mxCell id="QgZdvH6-Uv-4IUFap3HK-2" value="" style="endArrow=none;html=1;rounded=0;" edge="1" parent="QgZdvH6-Uv-4IUFap3HK-4">
          <mxGeometry width="50" height="50" relative="1" as="geometry">
            <mxPoint x="30" y="60" as="sourcePoint" />
            <mxPoint x="30" y="-10" as="targetPoint" />
          </mxGeometry>
        </mxCell>
        <mxCell id="QgZdvH6-Uv-4IUFap3HK-3" value="" style="endArrow=none;html=1;rounded=0;" edge="1" parent="QgZdvH6-Uv-4IUFap3HK-4">
          <mxGeometry width="50" height="50" relative="1" as="geometry">
            <mxPoint x="60" y="10" as="sourcePoint" />
            <mxPoint y="10" as="targetPoint" />
          </mxGeometry>
        </mxCell>
        <mxCell id="QgZdvH6-Uv-4IUFap3HK-7" value="&lt;font data-sider-select-id=&quot;f27a184b-c8dc-40be-8f64-d1861fa95607&quot; style=&quot;font-size: 11px;&quot;&gt;console&lt;/font&gt;" style="text;html=1;align=center;verticalAlign=middle;whiteSpace=wrap;rounded=0;" vertex="1" parent="QgZdvH6-Uv-4IUFap3HK-4">
          <mxGeometry x="30" y="-10" width="50" height="20" as="geometry" />
        </mxCell>
        <mxCell id="QgZdvH6-Uv-4IUFap3HK-9" value="&lt;font style=&quot;font-size: 11px;&quot;&gt;hello()&lt;/font&gt;" style="text;html=1;align=center;verticalAlign=middle;whiteSpace=wrap;rounded=0;" vertex="1" parent="QgZdvH6-Uv-4IUFap3HK-4">
          <mxGeometry x="-20" y="10" width="50" height="20" as="geometry" />
        </mxCell>
        <mxCell id="QgZdvH6-Uv-4IUFap3HK-10" value="&lt;font data-sider-select-id=&quot;f55c9472-0774-4d1f-a1b5-4a02e6bb6452&quot; style=&quot;font-size: 11px;&quot;&gt;&#39;hola&#39;, &#39;Dojo&#39;&lt;/font&gt;" style="text;html=1;align=center;verticalAlign=middle;whiteSpace=wrap;rounded=0;" vertex="1" parent="QgZdvH6-Uv-4IUFap3HK-4">
          <mxGeometry x="30" y="20" width="50" height="20" as="geometry" />
        </mxCell>
        <mxCell id="QgZdvH6-Uv-4IUFap3HK-5" value="&lt;font data-sider-select-id=&quot;20e941ed-b3df-4821-8897-2fc113f0b9ce&quot; style=&quot;font-size: 11px;&quot;&gt;hello()...&lt;/font&gt;" style="text;html=1;align=center;verticalAlign=middle;whiteSpace=wrap;rounded=0;" vertex="1" parent="1">
          <mxGeometry x="30" y="120" width="50" height="20" as="geometry" />
        </mxCell>
        <mxCell id="QgZdvH6-Uv-4IUFap3HK-11" value="&lt;font data-sider-select-id=&quot;a1680ae3-4c75-410e-8e4e-89bc9072d156&quot; style=&quot;font-size: 11px;&quot;&gt;log()&lt;/font&gt;" style="text;html=1;align=center;verticalAlign=middle;whiteSpace=wrap;rounded=0;" vertex="1" parent="1">
          <mxGeometry x="30" y="160" width="50" height="20" as="geometry" />
        </mxCell>
        <mxCell id="QgZdvH6-Uv-4IUFap3HK-12" value="" style="shape=image;verticalLabelPosition=bottom;labelBackgroundColor=default;verticalAlign=top;aspect=fixed;imageAspect=0;image=data:image/png,iVBORw0KGgoAAAANSUhEUgAAAxUAAADxCAYAAAC9IJoDAAAAAXNSR0IArs4c6QAAAARnQU1BAACxjwv8YQUAAAAJcEhZcwAADsMAAA7DAcdvqGQAABKbSURBVHhe7d29yxxHngfw0aUOvXtozTlyuoYLDMaRsTPJqUGpMRcuHP5LzMGFh9nEgcCBI6UO/YKCA29kcOSDFcfqH3CiU2mnzrVFdVdP//pt5vl8oHmmu166up8Zqb7TPc/ce/HSCQAAYKZ/Ov8EAACYRagAAABChAoAACBEqAAAAEKECgAAIESoAAAAQoQKAAAgRKgAAABChAro+Oe3Pz0/AgCgRaiAEWsHitS/0AIAXLt7L146P4bV5Qn0//74xaufR1VP9KPjbR330vtY01DwOfrvEQDYxqKhYmjiUTIJ2U75+zjKeW9Nro9mjfM2dNzXdj6GHHn8AMD63P4EDWmSvMVEeav9LCGP9ZrGDABsY5VQUU8+ygWOzvP0N2NXKZwnACBb5fanKZONsm45canbtiY1uU5vf3Palttb7ZOyzdg+hkzpt3TpmJKhesnUur3jGNLqL/dVHkvLFmNJxvqbO4Y5xz20PZvTZ9ZqmwzVbyn7aLXrjQEAuBt2DxW13HaovKXe31Ztx7TOwZS+57ZLyrZjbabWy1pjarnk3NV9LjmOZG5/c9otcdxL9pnMPf5LDY0fALhbDhMqxiZVY2XJXm2Tue33LksibVum9pdcsr81x1KWzR3D1LJkqHyNPpNLyi61ZF8AwHVb5TMVabJRL2MunfiMTWAibUtT2l7S/xLj6rXrnefSJeOZ0m/k+JY4N6U5/c09H0uPPYn0Ofc4AAAidv/rT3MmXcncdkmkbdSUfd/qZK937Fuem7SvrZ4Ha+xnq7EP6YUXAOBu2eyvP80xt10SabumNBkbWvYwdp7mnMPIeW+dk7zMsfT4lz5XPZE+1xxr+ftY47gBgOvjeyqAyQQKAKDl0KFi7B3q3rvXkbZrShOxKctWlj5Pkf5a56G1TLXl+CPHPSTS59rjueT3AADcPlcqNtab7M2d8N2CLc/NXT/XlyrPlUABANQOGSrKSUtr4jc2GYy0XdPRxnXJeKZMIo/0O5vT39zzsfTYk0ifc49jzJw2AMDdcohv1B7SmhRlqd1YH3Pb9sZV9turc+m4krE2l45paF9T6mRD+xwy1l/qa+xYlhxLr69kyTHMPe6h7cncPpOxtkmrTUuvn9LUPgGA23Po25+GJilTJi+Rtmsa2//SY4ucp2TOeIbabD2WVH9Of3PHMKe/nkifc8YKADDXolcqrsnYu7xwDTyHAYCj8EFtAAAg5OZCRXr3Ni9Dxspgb57DAMC1ucnbn+oJV3l7SFnmthGOynMYALgmN/uZiinv5JqQcWSewwDAtbj5D2q3JmYmYlwTz2EA4Oju7F9/AgAAluGvPwEAACFCBQAAECJUAAAAIUIFAAAQIlQAAAAhQgUAABAiVAAAACFCBQAAECJUAAAAIUIFAAAQIlQAAAAhQgUAABAiVAAAACFCBQAAECJUAAAAIUIFAAAQIlQAAAAhQgUAABAiVAAAACFCBQAAECJUAAAAIUIFAAAQcu/FS+fHi3j8+PHpyZMnp6dPn56ePXt23goAAETdv3//9M4775wePnx4evTo0Xnr/hYLFb/88svps88+O33zzTfnLQAAwFo++OCD0+eff3568803z1v2s1ioePDgwemHH344rwEAAGt79913X90ltLdFPlPx5ZdfChQAALCx77///tVcfG+LhIqvv/76/AgAANjSEebii4SKH3/88fwIAADY0hHm4ot8puL1118/PwIAALb2/Pnz86N9+J4KAAAgRKgAAABChAoAACBEqAAAAEKECgAAIESoAAAAQoQKAAAgRKgAAABChAoAACBEqAAAAEKECgAAIESoAAAAQoQKAAAgRKgAAABC7r146fx4ttdff/38aB0ff/vz+dHfffXeW+dHx5DHt+W4/vO//+X0p3/9n/Pa5VL7rNVPr/xSz58//4fnSb0ekfpK1n4eAgAcVZ4P7eXwVyrKCXtetpT2X4eaW5CCwlhY6JVfohUg0voST/7ct0ABALCfq7j9ae8rE7397xF2rkUrUGRLBQsAAPZ11Z+pqK8glOv5cb7SUNfNyvKyTrneKs+GtmdDbfP6UPlU6Tal8lalUi4bqxOxdv8AAFyHw4aKcqI9d+Kd6o9dRSjL63rleqs8ye2H1P3X4++NrydN5PNtSvWkPq+XtzEtOfGf0v/YVYrM1QoAgOt32FBRTrbz43LyXU/QL9ULBElvH2Ptp/QflSfzQ8ryXt051u4fAIDrcOjbny6Z1LfqLjGpXzMYrB060pWDcrkl6erGlCshAACs76o/U1EbmqT3wknEElck1hpfunpQL7cihQm3TgEAHMPhQ8WUCXs9KV/rqkVEGT62Gt/aVyfK/m/tSggAANMd+svvyol4rZyYpzr1pL1sN9RP2UfSq3Np+VBZPZ56fYo0iS+vPNTrSWuin+sMhYCp5Uldp95/0rtFKXoLk1ugAAD+Pifa09WGCq6DUAEAsL69Q8Wh/6Qs1y9N+Iee5AIBAMBtONyViqFbhrhudYBYMlDk0CKgAAB31dCbuFs59O1PAABA396h4qb+pCwAALA9oQIAAAgRKgAAgBChAgAACBEqAACAEKECAAAIESoAAIAQ31Nxpcq/RbzG+d/6SwiHvgzvL99/+urnH9/94tXPLG2vt10i95ss0U/dx9DxAACswfdUMEuasK45aU1BYqtvNN9jAp5CQCRM9KTj2fvFDQCwFaGCXd3yO/qCBQBwV7j9aUQ9IayPc6w8T5ZzndY5ivSf5f20TGnfk26DGrpiUd4ildT16vKkrjM2/jH59qeh24+S8hanZKjO2BWLsf6n6B1f/h3NOQcAAFk979uaKxUdabKXl1I5Gcxl9S8zTyjTMlaWl9KU/sdE2/fkwFDeJlWGiBxGyvL8M8vnYK4cCNJSB4gyDORAUNfpGet/qnR8S553AIAjEioGTJnwluWtupEJc9LrvyfavqcMCXVg2EIOC0PK8l7dljltLpV+L2v8bgAAtiRU7CRNJFNwycsayv7X2sctS1cn8gIAwDChYkf5XeocMJZW9p+XLaVboPKyx5WMiPLWpy2uWAAAXDOhYkRvol+WrxEKov1PaZPqzB17/RmKWgoSedlDeYUhcrVhzSsVkfMPAHAU/vrTiHqyVx/nWHkq662XWuew139Lr069n1yn3t4KCUkZEOo6Y2VJK1yk/beOvSdfScjq9aQOA3X9lrE6c65Y9I5v6PwDAFyiNe/bklDBKlKoqENEa9vcUHEtphzfrZ8DAGB9e4cKtz+xqzSZ3vtFsJZeWEjlAgUAcAtcqWA1Y7dH1W5tci0sAABbSnOPPQkVAABw5fYOFW5/AgAAQoQKAAAgRKgAAABChAoAACBEqAAAAEKECgAAIESoAAAAQoQKAAAgxJffreivv/vk9Ie//fm8dlz/9e/PT//2H//4O0zbanUdAACOwZffsatWeMhSiCgXAABoESoGpKsM+Wd+XMtldZ1yvVWeTF1vtU165VO0rlBcKqXivZMxAAD7EipGpMl6un0pLfXEPa/n8qS1LT/O65cY23/SK+9x9QEAgCUIFSN6QaAs79Wd45L9ryFdycjLkPR5Gp+pAQC424SKiVoT+HR1oFzWtHaAqJWfpUjLWLAAAOBuEyoC0kS/XgAA4K4RKgKWujqx9lWOqLGrFD6oDQCA76kYkCb6vSsPrTBQtynrDJWl7fX+evu/tH5LKyzkD2/XZXl7LQcKn6sAANjP3m/yChWEpSex5wAAwH72DhVuf2K29OQVKAAAECqYLYUJgQIAAKECAAAIESoAAIAQoQIAAAgRKgAAgBChAgAACBEqAACAEKECAAAIESoAAICQQ4eK/I3NAADAcR06VORvbBYsAADguNz+BAAAhAgVAABAiFABAACECBUAAEDIVYSK/GFtH9gGAIDjuYpQkcJE/ktQAADAsbj9CQAACBEqAACAEKECAAAIESoAAICQQ4eK/BeffEAbAACO69Chwl98AgCA43P7EwAAECJUAAAAIUIFAAAQIlQAAAAhQgUAABAiVAAAACFCBQAAECJUHFT+4r+0HFF0XL3j65Vfqu5nqX4BABAqDmvKF/9d88S4d3xTjn+qdJ7qvtK6YAEAsAyhgpvWChSZYAEAsIzDhoqPv/35/Og3Q9vKpZTXx+oMyZPN9HNo4pnLhuqMlffWx5T95ceXtF/S2L7LsQ3ViVi7/2TNvgEAbsWhr1T0AkAq/+q9t/5/acl9jNUZkiaT6d3s1jvaeT2XJ2Wdsm1ZZwllf2v0P1Xk/ERN6T+t57IhqXzJcQEA3EWHDRW9AJADxRSXholsyoQ069U9mr/+7pPmcom9z88W5z/1u1bfAAC34mo+U3FJiCjVbZYMGOkd7nIppfpDZUfwh7/9ubksqTz+I54DAACWcTMf1O7dKrWG/C52uZTK7UebVLeuUqRlSeXx5wUAgNtzFaGid5Wi/NxEtkXIWCoo7BE4Wlcp0rKktY+r7H+tfaV+9/j9AABck3svXjo/nm2td6BbYaFUltfBo16/VJpI9o6rNdnMbeqyVl+5Tiqr99fqO6n7Keu19rGW1njHxpblOr3j65UndZ16/0lrXKUp5clYHQCAvQ3NnbZy6FABUdFQkUypAwCwp71Dxc18pgJaUhgYepFNCRwCBQBAn1DBzWsFiylhIZULFAAAfUIFd0IdDoQFAIDlCBUAAECIUAEAAIQIFQAAQIhQAQAAhAgVAABAiFABAACECBUAAEDIvRcvnR/Pdhf/5n/5ZWprHP/H3/58fnQ6ffXeW+dH6xn6Mri/fP/pq59/fPeLVz+nyu2SS9sewR7jT/s82rma+/s/uujrd8qXJwLAlsr/2/bgSsVMaUKx5qQiBYktwkSyxgQpTUKveSI6Zfxl8OC6THn9jv3jnNru/Y83AByJUHHHeccV5hEsAOA3h779qf4Pu97PWHmeLOc6rTFG+s/yflqmtO9Jt0ENXbEob5FK6np1eVLXGRt/T/1Ofeud/bm39OR2Y7ff9PY/Vl6Pq17PWtvrfrOh9kmrLKn7qsdUGupjSK99tP+I/LzLr5Gh11aprjNWXj+v6/Wstb3uN5vavpT7GqsDAEsY+v9rK4e/UpH+M85LqfzPOpfVJzP/h5+WsbK8lKb0PybavicHhvI2qTJE5DBSluefWT4Hc5ST5TwZrSepUam/3H/dd2//ZduyzhLK/sb6Hxt/Uo+xlOuXZa0+hvTa1/vOdbaUn39pqV8bvddP2bass4Syv17/aXs9dgC4iw4bKvKkYUxZ3qrba9/T678n2r6nDAl1YNhCORFdY1La63Pt/UeNjSlP6sdEjy/afm2918Tar58tpHFf69gB4BJ39jMV6T/6FFzysoay/7X2sac0MS6XNbUmxWP7T/WHyrZypP3XYzjC+Sm1Jt5jr58tXr8AwHR3+oPa+V3EPEFZWtl/XraUboHKyxpXMtLEtF621Nt/uX3riXPaX7n/PZT7b42j3H6EYFHrvX7K7YIFAOzr0KGiN1Eoy9eYVET7n9Im1Zk79vozFLUUJPKyhr0nokvtf+3jGOq/3N6q0yvvmdPmUpHnb89S/a41vinWPD8AcCQ3/9efstZ6qXUMvf5benXq/eQ69fZWSEjKgFDXGStLWuEi7b917FO0Jq353fChCW39bvmQ1L5X95L9t/rKdVJZvb9W30ndT1lvrCzpte2NoW7fU7dPch/RvrOh52/PlOfd2OunLmv1VY6t3l+r76Tup6w3tI/W9qwcAwCsaej/tq34Ru0blUJFHSJa23qTIui5y8+hKcfuNQbAFvYOFXf6MxX89i4uXCo9b+7yhLl37Hf9/ABwt7hSccPGbo+qmfzAdF4vABxN+r9pT0IFAABcub1DhdufAACAEKECAAAIESoAAIAQoQIAAAgRKgAAgBChAgAACBEqAACAEKECAAAIESoAAIAQoQIAAAgRKgAAgBChAgAACBEqAACAkEVCxe9///vzIwAAYEtHmIsvEirefvvt8yMAAGBLR5iLLxIqPvnkk/MjAABgS0eYiy8SKj766KPThx9+eF4DAAC28ODBg1dz8b3de/HS+XHITz/9dHr//fdPv/7663kLAACwltdee+303Xffnd54443zlv0sFiqyx48fn548eXJ6+vTp6dmzZ+etAABA1P3790/vvPPO6eHDh6dHjx6dt+5v8VABAADcLb6nAgAACBEqAACAEKECAAAIESoAAIAQoQIAAAgRKgAAgBChAgAACBEqAACAEKECAAAIESoAAIAQoQIAAAgRKgAAgBChAgAACBEqAACAEKECAAAIESoAAIAQoQIAAAgRKgAAgBChAgAACBEqAACAEKECAAAIESoAAIAQoQIAAAgRKgAAgBChAgAACDid/g/zlOZoFT71AgAAAABJRU5ErkJggg==;" vertex="1" parent="1">
          <mxGeometry x="390" y="9.5" width="361.76" height="110.5" as="geometry" />
        </mxCell>
        <mxCell id="QgZdvH6-Uv-4IUFap3HK-13" value="" style="shape=image;verticalLabelPosition=bottom;labelBackgroundColor=default;verticalAlign=top;aspect=fixed;imageAspect=0;image=data:image/png,iVBORw0KGgoAAAANSUhEUgAAAwgAAADqCAYAAAAGYWIDAAAAAXNSR0IArs4c6QAAAARnQU1BAACxjwv8YQUAAAAJcEhZcwAADsMAAA7DAcdvqGQAABLMSURBVHhe7d296xxHngfg0aUOtXtozTlyuoYLBMaRsTPJqUGpMRseLP5LzMKFi9nEgcCBI6UO/YKCA29kcOSDNcfqH3CiU0lT5XJt9XtXT/fM80Dz6+nqqq7pGVvfz0zPzJ3nL5wAAABe+LfzXwAAAAEBAAD4lYAAAAAkAgIAAJAICAAAQCIgAAAAiYAAAAAkAgIAAJAICAAAQCIgAAAAiYAAmX9/6+PzGgDAbRIQ4Kx1OAjjCyAAwN7def7CeR1WFYvh//v+s5d/96os2pfOt3a/1z5GS30hZu+PJQCw3OyA0FdERIqJ7eSPx17Oe61Q3psW563rfh/tfHTZ8/wBgOVcYsTNCwXvFkXvVsdZQ5xrvgAAt2FxQKgVEnGBvfM8/dWYdw8AgOu3+BKjMQVWvm9ehJR9awVK3GfoeHP65ttr/YO8T98xuowZNzd1TkHXfsHYfYfuR5faeHGs/L7UbDGXoG+8uXOYc7+7tkdzxoxqfYOu/ecYmgMAcB02DQilsvgZozzeVn371M7BmLHn9gvyvn19xu4X1eZUM+XclWOuOY9g7nhz+q1xv9ccM5h7/6fqmj8AcF0uEhD6CqS+tuBSfYO5/S/dFizpWzN2vGDK8VrOJW+bO4exbUFXe4sxgyltY5THDuaMAwAcy+LPIIQiolz6TC1i+gqSJX1zY/pOGX+NeQ31GzrPuSnzGTPukvu3xrnJzRlv7vlYe+7BkjHn3o+55tw/AOB4Nv0Wo7kFxpLC5JJFzZhjr1G47dHQfd/y3IRjbfU8aHGcreY+JDwe1/p8BQB+1eRbjOaY2y9Y0relWFDVlkvoO09zzuGS8147J3GZY+35r32uhiwZs9VcQ998AQBug99BACaZG+IAgGPYTUDoKzqGCpIlfVsqX4HtWray9nlaMl7tPNSWsbac/5L73WXJmGvNJ+w7ZX8A4Dp5B6GhocLtlouxLc/NrZ/rqZwrALhtFw8I+avEtcKkr1hZ0relvc1rynzGvGq/p8dsznhzz8facw+WjDn3fnTpG2/qWADAcW3+S8pdyoIkF/r1jTG379C88nGH9pk6r6Cvz9Q5dR1rzD5R1zG79I0Xxuq7L2vOZWisYM05zL3fXduDuWMGfX2DWp8uQ2MFU8YDAI5nN5cYdRUdY4qRJX1b6jv+2nNbcp6COfPp6rP1XML+c8abO4c54w1ZMuacuXYJ+/fNZep4AMDxzH4H4Uj6Xn2FI/AcBgC24kPKAABAcuiAEF5VjUuXvja4NM9hAGBvDn+JUVk85Zdg5G0uzWCvPIcBgD25is8gjHmFVXHFnnkOAwB7cVUfUq4VWYoqjsRzGAC4tJv4FiMAAGAc32IEAAAkAgIAAJAICAAAQCIgAAAAiYAAAAAkAgIAAJAICAAAQCIgAAAAiYAAAAAkAgIAAJAICAAAQCIgAAAAiYAAAAAkAgIAAJAICAAAQCIgAAAAiYAAAAAkAgIAAJAICAAAQCIgAAAAiYAAAAAkAgIAAJDcef7CeX2yx48fn548eXJ6+vTp6eeffz5vBQAAlrp3797p/v37p4cPH54ePXp03trerIDw008/nT755JPTV199dd4CAAC08t57750+/fTT0xtvvHHe0s6sgPDgwYPTd999d74FAAC09vbbb7+8eqe1yZ9B+Pzzz4UDAADY2LfffvuyFm9tckD48ssvz2sAAMCWtqjFJweE77///rwGAABsaYtafPJnEO7evXteAwAAtvbs2bPzWht+BwEAAEgEBAAAIBEQAACAREAAAAASAQEAAEgEBAAAIBEQAACAREAAAAASAQEAAEgEBAAAIBEQAACAREAAAAASAQEAAEgEBAAAILnz/IXz+ih37949r7Xx4dc/ntde+eKdN89r+xDnt7d5tfTf//Mf57XT6b/+83/Pa+08e/as+fMst+bxwljBlvMHAG5LrDda2VVAuHTxPeb41xgQ8gAQ1YJA2K91QNg6HERrHPdScwcAbkvrgLC7S4wuXXgPHT+0X1M4iELhH5egFhpau2SBHY7b+j82AIAjOMxnEMpLj/LbcT38jUtN3p7vk9+utUdd26OuvvF2V/uQWKyHv7XCvdyW3459akuXqe8SlGPVxs6PW2vvEwv38LdWxJfb8tuxT20BAOBf7SIg5EXz3CI67N/36n7eXu6X3661B7F/l3L8cv5D8xsSiur4Cv/UAjvIi/6pAWCpfO5xKYWCve/dg9g+95X+fOyu48wdGwDgmuwiIOSFc1zPC+my2J5qqLgPho7R13/M+EstKerzvmPGmRNAWusq6scYEw4AAHhlN5cYTSnQa/uuUaC3LPJbB4ilQiiIS9er/HOFsfLxr01412HoHRAAgKM4zGcQSl0F91DQWGKNdwpazm+JGArWDAa5fPxrCwkhGITF5UkAwDXYVUAYU3yXBXardxOWyIPE1vO7dPF96eMr0gEAljnMOwih0M4L79xQwR3aY/+4lMp9utTay77lfIbmt1R8VT4sLd4BiGPn6/F2MHT8vE/XPktegY99l17ms7Q/AMA12M0PpdUKa27LpQt0AQMAOIJQc7S0i3cQylfkuU2huG79hO+iuAcAeOWi7yDkwcC7B0RbF+trHi8GHGEDAGil9Ququ7nECAAAGNY6IBz2a04BAID1CQgAAEAiIAAAAImAAAAAJAICAACQCAgAAEAiIAAAAInfQTiA/LtuW5z/rX+wruuHyf7+7ccv//7x7c9e/r02R71/XY8XAHAZfgeBl8VZywIthIKtfslasXk84fFq/T8iAGA/BAQ2Ixwcl5AAALfDJUZnZfFT3s++9lj4xn1q52jJ+FE8Ts2Y/kPCpUZd7yTklyEF5X5le1Du0zf/PuHSnHBZTtclOrE9ym/HPjVTLvUpx6nNITdl7KXieY3PgfIcl+c9vx371AyNU+o6PgCwrr5/v9fgHYRMKGzikssLn9hWPjCxeApLX1tccmPG77O0/5BY/OeXIuWBIAaLvD3+jeI5mCsW/WHpK/q75AX71OI9Hi8eP8jnkM8t32dL8fyGZc5jnz82XY/T3LEBgGMREF4YU7wOFVBD/YcMjT9kaf8hecFfFv9bWFJ0533njrPGGC0teczXeu6Evi2eewDAtgSEDYSiKYSQuLSQj9/qGLcsvEuQL7kQGLraAACORkDYSHx1NYaFteXjx2VL4TKjuFziHYbWQggol1y+XUgAAI5MQDgbKtrz9hYF/tLxx/QJ+8yde/mZg1IIBXG5pFbF+RZF/5LHZ6yW428xfwCgPd9idFYWNuX97GsPbUO3c7VzODR+zdA+5XHiPuX2WsEf5MV+uU9fW1ALCuH4tfs+JBTn+Sv25e0gFvDxFfzYPmZ9jDh+Lh8rN2XcXNfjM6Q8r7XznI+dt49Zj2rbcqE96NsHAFgu/pvbioDAYiEglIGgtm2owGTf52jM3DzGANBe64DgEiM2EwrH1k/oowrnZc/F9dDc9j5/AGA87yCwir5LkEoKyWPxeAHAvoR/m1sSEAAA4EBaBwSXGAEAAImAAAAAJAICAACQCAgAAEAiIAAAAImAAAAAJAICAACQCAgAAEDih9JW8o/ffXT6wz//dr5Fl7/++dnpT3/57XMobCuV+wAA8IofSuNq1IJAFAJBvgAAcBkCwgvh1f/4N66XYlu5T3671h6MvV3rGwy1D4kpM/ytJc5yW3479qktpb651d45mKrruAAArEdAOAvFbbhEKCxloRtvx/agti2ux9tT9B0/GGofEgrrcHlYWOYU2fmlZXMuM/OuAADAMQgIZ0NFfd4+tO8cU44/x5LPjiwNB2OEdxji0iUcu9XxAQB4RUCoqBXj4VX7fGmpRQBppTwn5e0x8s8ehKUvJAAA0JaAMFIo2suF356X2m0AAI5FQBhpyivifdYap5VLfwi4790DH1IGAGhPQBghvhqeXz5TFvphnzFte3xlPVzXH4vv1p8xKNeDeDtu84FmAIDL8UNpHErLEAMAcAStr6jwDgKH0PodDgAAXhEQOIQQDIQDAID2BAQAACAREAAAgERAAAAAEgEBAABIBAQAACAREAAAgERAAAAAEgEBAABIdhMQ4i/lAgAAl7ObgBB/KVdIAACAy3GJEQAAkAgIAABAIiAAAACJgAAAACS7Cwjxg8o+rAwAANvbXUAIwSB+oxEAALAtlxgBAACJgAAAACQCAgAAkAgIAABAspuAEL+5yIeTAQDgcnYTEHxzEQAAXJ5LjAAAgERAAAAAEgEBAABIBAQAACAREAAAgERAAAAAEgEBAABIBIQdiD8SFxb+1dbnZ+pxPG4AwDW58/yF8/oofsysnVBodp3fvrajqxXYtfu6xTmoHeOvf/7t/P70l8vMDQAgqNVOaxIQdqSvyLzmArS8b/FJX97f1udg7PghMAgJAMClxFqplV1cYvTh1z+e137VtS1fcvF23z5d4kkOf7tOeGzr2qevfeh2n3y8uD6l/xrK45fKbfnt2Ke2dJlaZJdj1cbOj1tr38Iljw0AMNZuPoMwVMyH9i/eeTMtNXGMvn26hMItFKZhKYu4eDu2B/k+ed98nzXk47UYf6y+8zNGPuet5z/m8Yn7LBH6zzk3AAB7souAMFTMx3AwxtRgEA0Vh3n70kJya//43UfVZYol93nqudtjkR0uK4pL7fKiMcJ9P9pzBwC4Pbv8FqMpgSBX9lkzLISiNV9yYf+utj34wz//Vl32JD9/axfSazw+IRTEpfzQMgDANTnk15wOXY7UQixa8yWXb59bhLZSe/cgLHuSn78W8vH39vgAAOzJ7gLC0LsH+ecMoi0Cw1pF5SWK09q7B2Fp4dLF956L/zC3Pc8PACDYzdec1gr/XN5ehojy9lShaBu6X7XCLvYp22pjxX3iK9j5PrWxg3KcfL/aMVqpzbdrbmF73j51vSa01+R94j5hWzle2b/rWF3zKC8p6voMQlf/KJ8jAMBcZW2zNr+DAGdDBf6QMf2XHgMAoHVAOORnEKCFULjP/Q9uqPAP7cIBAHAEAgJk5oSEMYV/aBcOAIAjEBCgMLWQV/gDANdEQAAAABIBAQAASAQEAAAgERAAAIBEQAAAABIBAQAASAQEAAAgufP8hfP6KLf4ne/5D2e1uP8ffv3jee10+uKdN89r7XT9sNffv/345d8/vv3Zy797s/f5zbX0+TXmh9oAgOuR1w4teAdhhFB8tSzAQijYIhgEisn9GfP86vsfQejb+n8UAMDtEBBuiHBwvYQEAGAtu7nEqCxuyuP0tcfCN+5Tm+OS8aN4nJox/YeES4263knIL0MKyv3K9qDcp2/+fcpLe+Zc6hP7RGXfofaW4nmJj2HXY58r9+lrL897eTuqbS/Hjcb2z8Wx+vYBAPavqz5Yy67eQQiFS1xyeWET28oTE4ujsPS1xSU3Zvw+S/sPicV/filSHghisMjb498onoM5asX6nHAQ+sR+eSAI67Et32dL8fyEpXzshh7fvG++zxry8YbGD9vLuQMATLWLgBALrD55e23fof5DhsYfsrT/kLzgL4v/LYSiPRTysZifKu9ziQAwZOgxa/34biHM+6hzBwC2cxOfQQhFUQghcWkhH7/VMY4shou45PLwUbZdQq2I7nt8t3h+AQBs5WY+pBxfPY3F3Nry8eOypXCZUVxavMMQCvdQyMdifqrYN19y+fY9hITS0OObbxcSAIAj201AGCqq8vYWBdjS8cf0CfvMnXv5mYNSCAVxWVutYJ9axG9R9C85v0PWGrfV/MZoeX4AgOtxVd9iFNVu52r3YWj8mqF9yuPEfcrttYI/yIv9cp++tqAWFMLxa/e9Tyzsy1f8u7Z3qQWE2LdsGztmqev8DhlzXvoe37KtNlY+t/J4tbGDcpx8v65j1LZH+RwAgOPqqh3W4peUr0AICGUgqG0bKiCvwS3cxy5j7vstnx8AuBatA8LNfAaBX1+9vkbhft1y8Tt032/9/AAA43kH4Ur0XYJUUiheF48nANyW8G9/SwICAAAcSOuA4BIjAAAgERAAAIBEQAAAABIBAQAASAQEAAAgERAAAIBEQAAAABIBAQAASAQEAAAgERAAAIBEQAAAABIBAQAASAQEAAAgmRwQfv/735/XAACALW1Ri08OCG+99dZ5DQAA2NIWtfjkgPDRRx+d1wAAgC1tUYtPDggffPDB6f333z/fAgAAtvDgwYOXtXhrd56/cF4f7Ycffji9++67p19++eW8BQAAaOW11147ffPNN6fXX3/9vKWdWQEhevz48enJkyenp0+fnn7++efzVgAAYKl79+6d7t+/f3r48OHp0aNH563tLQoIAADAdfE7CAAAQCIgAAAAiYAAAAAkAgIAAJAICAAAQCIgAAAAiYAAAAAkAgIAAJAICAAAQCIgAAAAiYAAAAAkAgIAAJAICAAAQCIgAAAAiYAAAAAkAgIAAHB2Ov0/L6hxMw3sB/EAAAAASUVORK5CYII=;" vertex="1" parent="1">
          <mxGeometry x="760" y="10" width="397.95" height="120" as="geometry" />
        </mxCell>
        <mxCell id="QgZdvH6-Uv-4IUFap3HK-14" value="" style="shape=image;verticalLabelPosition=bottom;labelBackgroundColor=default;verticalAlign=top;aspect=fixed;imageAspect=0;image=data:image/png,iVBORw0KGgoAAAANSUhEUgAAAwsAAAEsCAYAAACMkC8dAAAAAXNSR0IArs4c6QAAAARnQU1BAACxjwv8YQUAAAAJcEhZcwAADsMAAA7DAcdvqGQAABkhSURBVHhe7d0/qyzHmQfguZs6vPYim3WkWLCBwCgydiY5FSgVi8MF409iDBuaxYkDgQJHSh3KNgoWlBkUecFisb6AE+195SmrVH67q/9Pz8zzQHNnuqqrq/uMNO/vdM+ZF1++cgEAAGj8y/VfAACAbxAWAACAlLAAAACkhAUAACAlLAAAAClhAQAASAkLAABASlgAAABSwgIAAJASFgAAgJSwAAAApIQFAAAgJSwAAAApYQEAAEgJC5D41zf+4/oIAOB5CQvQ2DsoxPjCCGfgtQhAz4svX7k+hl2UYuT/Pv3vr/49q7ZoWjvf7Li33sfR6vnvcX44zr2/FgE4xuqw0L7hZLwJHWfLYm4r91AU7nHeho77Hs5Hpj5HYe387/U8PBI/AwB63IYEV1EwHVE0HbUf6PFaBKBns7BQ3nSyBc7O63Rce1UBAHgOm92GNKXYqvvWxUe7bVaYlD69/S3Ztl6fbR/qbcb2MWTKuLW5cwpD/cLUvr3jGJKNV8aqjyVzxFzC2HhL57DkuIfWF0vGLLJtw1D/KeoxY5yhObT9eupxlsw726b0b+c4dW5T+4V2H62hsert6j613r4z2VhlnKG5TllfjzvUr9X2A+B+3SQstMq2Q+2ZqW9amTXbjsnOwZSxl24X6m3Htpnar8jmlJlz7toxt5xHWDreku22OO4txwxLj7+nne+U+U/Zz9TjHdtPT71tb35L5z/Ud2i8qfOfMocwdbzQjjl0DENjzj2OqccAwHnd9DML8UYy9GZS2sb6DNl726E+vTfPrbdrtW3ZNvW+6va6z1JrxhvadkpBkpk63hbnY+l2Y+aOudfPden5n2vpnJduN2arcabYev5bj1e04+31egPgfDYLC/Hm0S5j2jeVun/2hjP2JrRm29qUbeeMv8W8etv1znNtznymjLvm+LY4N7Ul4y09H1vPPawZc+lx9PTGbUWfssyR9a/X1fNYc57mzmtvc457yJrzMVU7xpx9TjkGAM7tJlcWlr6BrXnjW7PtWlP2/ahvqr1jP/LcxL6Oeh3ssZ+j5t661X6XmjLf9jX1yEXtmp/fvf3sAdjern8NaYml24U12+4pCpGh5RbGztOSc7jmvGfnpCxLbD3/rc9Vz5oxt5zr0vN/lD3Ofdhr3L3dYt5bvt4AOK+bfmYBOJ82KNQBrm5rn9+DrIi9t2MAgCOdLiyMvXH33tTXbLunKFCmLEfZ+jytGS87D9ky1ZHzX3PcQ9aMucd8zmqLY237zXmdnc0tfva32CcAx3Nl4QC9N9VnfmM98tw8+7nm7+45FADA0U4TFuo38KygGyvy1my7p7PNa858phRUZ/qZLRlv6fnYeu5hzZhLj2NI9BlbivZ57Kcse2n315q77y3musU8ltr6fEwxZ591XwDu082+wXnI2JtbbDc2xtJte/Oqx+31mTuvMLbN3DkN7WtKn2Jon0PGxouxxo5ly7n0xgpbzmHpcQ+tD0vHDGPbhmybJXrHFabsa+xYwth4Y8cafeeMHabMNzM2j1o9/py5TZ3X2DxijKF9zl1fG9tnmDp3AM7tdLchDb3BTHnjWbPtnsb2v/Xc1pynsGQ+Q9scPZfov2S8pXNYMl7PmjGXzPVerTlPYavzsXYeW7nFPMbGPvr4AdjP6isL92TKb8vgzLyGt/NM59LrBoClfMAZeDq9W2gAgL97iLAQb/xlGaI44My8hm/j3n/T7nUDwN4e5jak9g2xLgLqNpfhOSuv4WM82rn0ugFgTw/1mYX2TTPjDZMz8xre3yMW0F43AOzlIT/gnL1xeqPknngN76ec20c8n143AGztqf4aEgAAMJ2/hgQAAKSEBQAAICUsAAAAKWEBAABICQsAAEBKWAAAAFLCAgAAkBIWAACAlLAAAACkhAUAACAlLAAAAClhAQAASAkLAABASlgAAABSwgIAAJASFgAAgJSwAAAApIQFAAAgJSwAAAApYQEAAEgJCwAAQEpYAAAAUi++fOX6eLEPPvjg8tFHH10++eSTy+eff35dCwAArPXaa69d3nzzzcs777xzee+9965rj7EqLPz5z3++/PznP7/87ne/u64BAAD28qMf/ejyi1/84vL973//umZfq8LC22+/ffnjH/94fQYAAOztBz/4wVd39Rxh8WcWfvOb3wgKAABwsD/84Q9f1eJHWBwWfvvb314fAQAARzqqFl8cFj799NPrIwAA4EhH1eKLP7Pw8uXL6yMAAOBoX3zxxfXRfnzPAgAAkBIWAACAlLAAAACkhAUAACAlLAAAAClhAQAASAkLAABASlgAAABSwgIAAJASFgAAgJSwAAAApIQFAAAgJSwAAAApYQEAAEgJCwAAQOrFl69cH8/y8uXL6yPO6Fc/++Ly019+82cU61ptHwAA7sMXX/xzbbc1YeEBlVCQhQXhAADgMRwRFk51G9K7H392ffS1oXX1UivPx/oMKSc8/s1Ofruufl62yZYjbREIbjFvAADO53SfWegV9tH+4Vuv/2PJlDHG+gyJIjmumsSypGCur7jc4uqLKwcAAGzlVGGhV9iXoDDF3JBQrCnw1waFv3z7/XTZUlx5KMuQmPstgg4AAOdy6r+GNCcc1NptlgaHo333r79Ol63EVYd6GQsMAABw1386tXfL0r3JrirEAgAAt3DasNC7qlB/LqE4Mjzs8QHg7KpCLHsYu6rgA84AAIRThoWhoBDrom0sSIwFjLXiPv5SSJ/1nv768wj141Cel3U+DA0AwBjfs0DqzIEIAIB97nRp3fVnFtje2a+cAABwHGGBb4iQICgAABCEBQAAICUsAAAAKWEBAABICQsAAEBKWAAAAFLCAgAAkBIWAACAlLAAAACkXnz5yvXxLM/4xV31V2rvcfzvfvzZ9dHl8uFbr18f7efob2r2zdAAANupa9O9uLIwQxS6exa7ERCOCAnhFoV77O+IFzUAANsQFp7QLX/DLzAAANyP092G1BaS7X7G2ksRXPpkc1wzflH2k5myfU/cjjR0haG+VSm0/dr20PYZmn9ZX46h7dNuVz8v22R647SG9g8AwNfG6q+tnPLKQhSJZanVRWRpa09SKURjGWsrS23K+GPWbt9TgkB9u1IdDkrIqNvLv0U5B0NKeyxL5l6PPbSfpWMDAHCsU4WFXiEbesVob/ue3vg9a7fvqYv/NghsYc2ctzr22HaPcwcAwDxP9ZmFKEAjkJRlD/X4e+0DAACO8HQfcC6/tS7BYWv1+GU5UtyKVJY9rjwAAPA8ThcWegV83b5Hsb92/CnbRJ+lc28/o9CKgFCWPS2d/xRrzg8AANt5yL+GVGTPa9kx9MbP9Pq0+yl92vVZ8R/qwr/tM9YWstAQ+x869vZYxuZet095XGTratEexvoAADy7UjPtyTc4P5AIC204yNb1ivW9Tdn/recIAHB2R4SFp/vMAl9fFbiFXgiIdkEBAOAcXFl4MGO3KbWOLsqFAACA7URttTdhAQAA7tARYcFtSAAAQEpYAAAAUsICAACQEhYAAICUsAAAAKSEBQAAICUsAAAAqdN+z8KcLxe7hTK/I+f1X//zb9dHl8t//vv/Xh+dW8z5XuY615m/1K783WXfhwIAj+tpv2ehLsTLcqTYfxtWziCK7iMK7yjw62CylTLumvH3mNcSRweFEPub8j+FMjdBAQBY67S3Id36SkJv/7cIMUeIYnzPQFICTyxnKfznukVQKKYGBgCALdzdZxba3/jXz8vjcmWg7VvU7XWf+nnWXgytL4a2Lc+H2rdQfmtfllbbnvUZUvr2tivtY32G1NvW29fPs/Yw9Xm2bei195QiPv7NCvp2Xf28bJMtAAC3cqqwUBfQSwvq6D/2W/+6ve1XP8/aQ9l+SDt+O//e/NYoBW75zX2oi954XP9mP5R/Q1sgZwVzPUavvR57ijJevW22rjwuz+eYM/+sPYr3sasKpX3pFYB67KH9LB0bAGCuU4WFuoguj+uiui285+oV+qG3j7Htp4y/t7qArh9PVbYZ2nZszFJoj4k+Zcn61ut6Yy3RG3PtPocK/CmmBAUAgCOd7jakOcV61neLYn3Pgv/WYeLWohgfK8jrMBHLnvYII7cUVxt6Vz4AAOa4u88stIaK717oWGOLKwh7zm9MXYjXxXIpzOv28nwv2dglTNQL00RIiMUtSgDAVk4ZFqYU4m2xvddVhjXqUHHU/OoCvFeMt+q2oT49vf0XQ2OPbTPHVuPsRUEPANyDu7uyEEV3XYTXesV3tJfty9Jq+wzJ2ttt2/n05tcTBXApgsvjuiguBXi9vi3K6+1Kn620+58SNuo5tNuXpRZ9prRN2fcSa35zX7Zde6vQ2u0BAKY63Tc4Z0U228iK6D0L60d162K9t39hAgCeQ7zn7+1UVxba39TDGUUhfsR/nBlBAAA40imuLNQhwVWFfWW37rDM0YX7nP2VMCNYAMDjOuKXl6e7DQkAAOg7Iizc/Z9OBQAA9iEsAAAAKWEBAABICQsAAEBKWAAAAFLCAgAAkBIWAACAlO9ZOJH6b+XucX6P/vK7OV8itoWj9wcAcEu+Z+HJRKG7Z7EbAeGob8i+ReEe+zviPxoAgGchLLC5W/6GX2AAANjO092G1BaS7XGMtZciuPTJzsGa8Yuyn8yU7XvidqShKwz1rUqh7de2h7bP0PzL+nIMbZ92u/p52SbTG6c1tH8AgHsyVh9t5SmvLESRWJZaXUSWtvaHUArRWMbaylKbMv6Ytdv3lCBQ365Uh4MSMur28m9RzsGQ0h7LkrnXYw/tZ+nYAAB801OFhV4hG3rFaG/7nt74PWu376mL/zYIbGHNnLc69th2j3MHAPBofGZhQ1GARiApyx7q8ffaBwAABGFhY+W31iU4bK0evyxHiluRyrLHlQcAAM7j6cJCr4Cv2/co9teOP2Wb6LN07u1nFFoREMqyp6Xzn2LN+QEAeCb+GlJzHGPt0dZ7XsvOUW/8TK9Pu5/Sp12fFf+hLvzbPmNtIQsNsf+hY2+PZWzudfuUx0W2rhbtYawPAMDZlZpmT77BmckiLLThIFvXK9b3NmX/t54jAMBaR4QFn1lgc1GEH/HizfRCQLQLCgAA07iywCxjtym1ji7KhQAA4JlE7bM3YQEAAO7QEWHBbUgAAEBKWAAAAFLCAgAAkBIWAACAlLAAAACkhAUAACAlLAAAAClhAQAASAkLM/3l2+9fHwEAwGMTFgAAgNRThYVyVSD+HbpCUNraPvXzrD1MfZ5tG3rtPeUrv+Pf7Ou/23X187JNtrSG1gMA8Fie7spCFOHf/euvv1ragrw8L+0hW1cel+dzjO0/9Np7ooh/+fLlV8uSgj62K+rHAAA8n6cLC70Cv27v9V1izv6XWFPgTw0K0SZIAAA8vqf+zEJWmMdv8+tlT3uEEQAA2IoPODeigG8XAAB4RsJCY6urCXtflVhrzQeUfcAZAOA5CAuVchWhvg2pLfqjz5S2M16RiM8ZlELfZw4AAOh58eUr18ezKDafm8ABAHBbR9zp4coCs7gyAQDwPIQFZomQICgAADwHYQEAAEgJCwAAQEpYAAAAUsICAACQEhYAAICUsAAAAKSEBQAAICUsAAAAqdOFhfINwQAAwG2dLiyUbwgWGAAA4LbchgQAAKSEBQAAICUsAAAAKWEBAABInTYslA85+6AzAADcxmnDQoSE8peRAACA47kNCQAASAkLAABASlgAAABSwgIAAJA6XVgofwHJB5sBAOC2ThcW/AUkAAA4B7chAQAAKWEBAABICQsAAEBKWAAAAFLCAgAAkBIWAACAlLAAAACkhIUTKV9IF8sZnX1+mXua61xbH9sjnysAYBlh4USmfCHdLQu6o74wL45xj+Ms464Zf495LRHzGPtZ/Opn+Txjfb3UYryzHB8AcA7CAqfSK4LXKoHnngvjpUGh+OkvX361ZO75vAAA2ztVWHj348+uj742tK5eauX5WJ8hpUiKf4cKptI21Gesvfd8TD1eeTxn+6PUc8vm17ZnfYaUvr3tSvtYnyH1tvX29fOsPUx9nm0beu1TRFAYCgJtWzzuBYvMmvkBAPfldFcWeoV9tH/41uv/WDJljLE+Q6IIGvrNc3le2kPdp9627rOFerw9xt/C3PMTyr+h7hva56Eeo9dejz1FGa/eNltXHpfnc8yZ/1j7kKGgkBkKCkP7BgCez6nCQq+wL0FhirkhoRgrxELd3ut7Nn/59vvpsqW156dsM7Tt2Ji9QjpEn7Jkfet1vbGW6I25xz5bERLGrkD0xByPmCcAcHun/szCnHBQa7fZMjjUxWYsteg/1HYG3/3rr9PlmfQK3frnt/fP8BYFdwkJS4MCAPBc7voDzr1blvZQis16qdXrzxYYsqsKsRypLsTrc1fOVd1enu8lG7v++ZXlkQgJAMAcpw0LvasK9ecSiiPCw1bF655F8JDsqkIsW6qPq1eMt+q2oT49vf0XQ2Nv9XPZapwtRVCoP6ew9FakOLYzHh8AsL0XX75yfTzLkkJuiiwE1Or2NlC0z+eKAqh3XFmRVLZp27KxSp9oa/eXjR3acep+2T72MmV+bZ/e8ZX2aMuOpV7f9sm2qfcRbb3tQ7au1ttHrR4z21/bvza1/9g4dRgo6kDQtmdhYco8w1gfAGB/5T15T6cLCzyurAjtFab8s73P2ZTx/dwA4Pbi/Xhvd/2ZBXhGUaTv9T+HXgiIdkEBAJ6HKwscqi1yvY6W27poFwIA4L60ddUehAUAALhDR4QFtyEBAAApYQEAAEgJCwAAQEpYAAAAUsICAACQEhYAAICUsAAAAKR8z8IM9d+y3eP43/34s+ujy+XDt16/PtrP2b6Ea+35PdvxAADsyfcsnEwUonsWoxEQjggJ4YyF9ZTzO/YfRWx7xH80AADPQlh4Qo/8G3iBAQBgO6e7Dakt9Nr9jLWXIrj0yea4Zvyi7CczZfueuB1p6ApDfatSaPu17aHtMzT/sr4cw1CfWttnrL3db/u8yNa34xZTt6+Vscb6AACc3VB9tKVTXlmIIq4stbrIK23tSSqFYixjbWWpTRl/zNrte0oQqG9XqsNBCRl1e/m3KOdgSGmPpZ177/jqbes+W6jH640f69u5AwAw36nCQik2x9TtWd/e9j298XvWbt9TF/9tENhCb857H98RYt73OncAgCM91WcWokCMQFKWPdTj77WPo2QF9djxHXF+AQA4ztN9wLn8VrkUtlurxy/LkeJWpLLsdeVh7Pjq9QIDAMB9O11Y6BWYdfsexeja8adsE32Wzr39jEIrAkJZ9rB03q2txllizfkHAHgmD/nXkIrseS07ht74mV6fdj+lT7s+K/5DXfi3fcbaQhYaYv9Dx56tr40dX9s2tI8Qbe3+srFDO07db2gf2fqingMAwL0aqp225BucH0iEhTYcZOt6xfS9m3J8j34OAIDHd0RYeLrPLPD1b/UfUS8ERLugAAAwjSsLD2bsNqXWoxXNQgAA8Eyi9tmbsAAAAHfoiLDgNiQAACAlLAAAAClhAQAASAkLAABASlgAAABSwgIAAJASFgAAgJTvWZih/lu2exx//YVqY1+mtpWjv8TMl6YBAGzH9yycTBS6exa7ERCOCAnhFoV77O+IFzUAANsQFp7QLX/DLzAAANyP092G1BaS7X7G2ksRXPpkc1wzflH2k5myfU/cjjR0haG+VSm0/dr20PYZmn9ZX46h7dNuVz8v22R647SG9g8AwNfG6q+tnPLKQhSJZanVRWRpa09SKURjGWsrS23K+GPWbt9TgkB9u1IdDkrIqNvLv0U5B0NKeyxL5l6PPbSfpWMDAHCsU4WFXiEbesVob/ue3vg9a7fvqYv/NghsYc2ctzr22HaPcwcAwDxP9ZmFKEAjkJRlD/X4e+0DAACO8HQfcC6/tS7BYWv1+GU5UtyKVJY9rjwAAPA8ThcWegV83b5Hsb92/CnbRJ+lc28/o9CKgFCWPS2d/xRrzg8AANt5yL+GVGTPa9kx9MbP9Pq0+yl92vVZ8R/qwr/tM9YWstAQ+x869vZYxuZet095XGTratEexvoAADy7UjPtyTc4P5AIC204yNb1ivW9Tdn/recIAHB2R4SFp/vMAl9fFbiFXgiIdkEBAOAcXFl4MGO3KbWOLsqFAACA7URttTdhAQAA7tARYcFtSAAAQEpYAAAAUsICAACQEhYAAICUsAAAAKSEBQAAICUsAAAAKWEBAABICQsAAEBKWAAAAFLCAgAAkBIWAACAlLAAAACkFoeF73znO9dHAADAkY6qxReHhTfeeOP6CAAAONJRtfjisPD+++9fHwEAAEc6qhZfHBZ+8pOfXH784x9fnwEAAEd4++23v6rFj/Diy1euj2f705/+dPnhD394+dvf/nZdAwAA7OVb3/rW5fe///3le9/73nXNvlaFheKDDz64fPTRR5dPPvnk8vnnn1/XAgAAa7322muXN9988/LOO+9c3nvvvevaY2wSFgAAgMfjexYAAICUsAAAAKSEBQAAICUsAAAAKWEBAABICQsAAEBKWAAAAFLCAgAAkBIWAACAlLAAAACkhAUAACAlLAAAAClhAQAASAkLAABASlgAAAASl8v/A5TQsY/TQWynAAAAAElFTkSuQmCC;" vertex="1" parent="1">
          <mxGeometry x="10" y="200" width="311.6" height="120" as="geometry" />
        </mxCell>
        <mxCell id="QgZdvH6-Uv-4IUFap3HK-15" value="" style="shape=image;verticalLabelPosition=bottom;labelBackgroundColor=default;verticalAlign=top;aspect=fixed;imageAspect=0;image=data:image/png,iVBORw0KGgoAAAANSUhEUgAAAwsAAAEsCAYAAACMkC8dAAAAAXNSR0IArs4c6QAAAARnQU1BAACxjwv8YQUAAAAJcEhZcwAADsMAAA7DAcdvqGQAABd6SURBVHhe7d2/y+zWmQfwudumdLI4YVO5DmxhCK5C0tlpDW7NknIh5C8JgS3DkiaFwUUqtymdBBcL7gKushCz5P4Dae7ex5mzPj776MdIOpJm5vMB8c7oHB0d6b4Xnu9IeufFq9cuAAAAjX+6/gQAAPgGYQEAAEgJCwAAQEpYAAAAUsICAACQEhYAAICUsAAAAKSEBQAAICUsAAAAKWEBAABICQsAAEBKWAAAAFLCAgAAkBIWAACAlLAAAACkhAUAACAlLAAAAClhAUb88w/+7foKAOD5CAswoHdQiPGFEQDgzF68eu36GroqhfH/fP6fX/08q7aAXzvf7Li33kcvc8PM2f9NAYBlNgsLc4oKBcV+6n+Ps5z3rGg+mx7nbei47+18jDnzMQAAy7kNCRpR+O5R/O61ny2UuQ4tAMBj2jwsZIVEWeDs/J4CAHxt89uQ5hRbdd/6Nod22+wWiNJnan9Ltq3XZ9uHepuxfQyZM27t1jmFoX5hbt+p4xiSjVfGqo8ls8dcwth4S+ew5LiH1hdLxiyybcNQ/yFT+wEAHtuhYaHVFkJztPvba9sx2TmYM/bS7UK97dg2c/sV2Zwyt5y7dswt5xGWjrdkuy2Oe8sxw9Ljz7RzbMeeOw4AcJ9OERbaber2sbZw1LZh6fZHt4U122bmjhdu2V/PudRtS+cwty0MtfcYM9zSNqTdX2buWADA/dn8mYUoLtplzK0FzVhhsmbb2pxtbxl/i3lNbTd1nmu3zGfOuGuOb4tzU1sy3tLzsfXcw5oxlx7HLWKMshRLxwIAzu/Qv4aUFTRzLN0urNl2rTn7ftTCa+rY9zw3sa+9fg967Gevubfa/dbvBQYAeEy7/DWkJZZuF9Zs21MUVEPLEcbO05JzuOa8Z+ekLEtsPf+tz9WUNWNuOdfoXxYA4Pn4ngUAACB12rAw9ony1KfNa7btqf6UdmzZy9bnac142XnIlrn2nP+a4x6yZswe8wEAnpMrCzuaKuKeuZDb89w8+7m+xdxzdUuQAwDux+nCQl10ZEXKWOGyZtuezjavW+Yzpwg807/ZkvGWno+t5x7WjLn0OOa4dS4AwGM4/Buch4wVIrHd2BhLt52aVz3uVJ9b5xXGtrl1TkP7mtOnGNrnkLHxYqyxY9lyLlNjhS3nsPS4h9aHpWOGsW1Dts2YrccDAO7HaW9DGipA5hQma7btaWz/W89tzXkKS+YztM3ec4n+S8ZbOocl401ZM+aSuY7ZejwA4H5sdmXhnox9Kgv3wO8wALAHDzgDAACphwoL8WlrWYaMtcHR/A4DAGfycLchtYVUfZtG3eb2Dc7K7zAAcBYP+czCnE9eFVqcmd9hAOAMHvoB56zgUmBxT/wOAwBHesq/hgQAAEzz15AAAICUsAAAAKSEBQAAICUsAAAAKWEBAABICQsAAEBKWAAAAFLCAgAAkBIWAACAlLAAAACkhAUAACAlLAAAAClhAQAASAkLAABASlgAAABSwgIAAJASFgAAgJSwAAAApIQFAAAgJSwAAAApYQEAAEgJCwAAQOrFq9eur1f76KOPLp988snls88+u3z55ZfXtQAAwFpvvvnm5e2337689957lw8++OC6tq9NwsJf/vKXyy9+8YvL73//++saAACglx//+MeXX/7yl5fvf//71zV9bBIW3n333cuf/vSn6zsAAKC3H/7wh1/d1dPT6mcWfvvb3woKAACwsz/+8Y9f1eI9rQ4Lv/vd766vAACAPfWuxVeHhc8///z6CgAA2FPvWnz1MwtvvPHG9RUAALC3ly9fXl9tz/csAAAAKWEBAABICQsAAEBKWAAAAFLCAgAAkBIWAACAlLAAAACkhAUAACAlLAAAAClhAQAASAkLAABASlgAAABSwgIAAJASFgAAgJSwAAAApF68eu36epE33njj+ooz+vXPX15+9qtv/hvFulbbBwCA+/Dy5f+v7bYiLDywEgqysCAcAAA8hp5h4ZS3Ib3/6RfXV18bWlcvtfJ+rM+QcsLjZ3by23X1+7JNtuxpi0BwxLwBADiP0z6zMFXYR/vH77z1f0umjDHWZ0gUyXHVJJYlBXN9xeWIqy+uHAAAsNYpw8JUYV+Cwhy3hoRiTYG/Nij89dsfpsuW4spDWYbE3I8IOgAAnMNd/DWkW8JBrd1maXDY23f/9pt02UpcdaiXscAAAMDzeog/nTp1y9K9ya4qxAIAAHs6fViYuqpQP5dQ7BkeejwAnF1ViKWHsasKHnAGAHhupw4LQ0Eh1kXbWJAYCxhrxX38pZA+6z399fMI9etQ3pd1HoYGACDjexYYdeZABABAnztdiod4ZoHtnf3KCQAA/QkLpCIkCAoAAM9NWAAAAFLCAgAAkBIWAACAlLAAAACkhAUAACAlLAAAAClhAQAASAkLAABA6sWr166vF3nGL+6qv1K7x/G//+kX11eXy8fvvHV91c/e39Tsm6EBALZT16Zbc2VhgSh0exa7ERD2CAnhiMI99tfzlxoAgG0IC0/syE/4BQYAgPM77W1IbSHZ7mesvRTBpU82xzXjF2U/mTnbT4nbkYauMNS3KoW2X9se2j5D8y/ryzG0fdrt6vdlm8zUOK2h/QMA8LWx+mutU19ZiCKxLLW6iCxt7UkqhWgsY21lqc0Zf8za7aeUIFDfrlSHgxIy6vbysyjnYEhpj2XJ3Ouxh/azdGwAAPZxyrAwVciGqWJ0avspU+NPWbv9lLr4b4PAFtbMeatjj217nDsAAOZ5ymcWogCNQFKWHurxe+0DAAB6etoHnMun1iU4bK0evyx7iluRytLjygMAAI/vtGFhqoCv23sU+2vHn7NN9Fk69/YZhVYEhLL0tHT+c6w5PwAArPfQfw2pyN7XsmOYGj8z1afdT+nTrs+K/1AX/m2fsbaQhYbY/9Cxt8cyNve6fc7rIltXi/Yw1gcA4NmVmqkH3+D8gCIstOEgWzdVrPc2Z/9HzxEA4Ox6hoWnfWaBr68KHGEqBES7oAAAcCxXFh7U2G1Krb2LciEAAGA7UVv1IiwAAMAd6xkW3IYEAACkhAUAACAlLAAAAClhAQAASAkLAABASlgAAABSwgIAAJA6/fcs3PLlYkco8zvbvP7jv/7lq5///q///dXPR3bmL5Urf/fY95EAAL087ZeyHV2Iz9n/UXOMMDAWBI4KC2W/mR5z2TsoFHP2e9TcAIDn8tRh4chP7I/e/5ipsHAGved4dDE+tX9hAQDYg7CQaNvq9+V1/Cyycer2UG+facco/bKxw9D+Y328H2ofM/TJfV2U133aYn3uJ/9tv6lxslAQfbLt5vSdM/5QMV7Wl/84bZ92u/p92SYzNU5rqh0AYAtj9ctap3zAOYroUkiX13VhPUf0jwJ8rJAv7W2/+n3WHsr2Q9rx2/lPzW9IFM2lcC6v20I6W9eq29u+pVCvx6mL91LY18uWpvYf5hbqsSz5D1SPPbSfpWMDANyLU4aFuogur+uiui28bzVV6IepfYxtP2f8I9XF/VChP6fPWm0AqK3d/1CBP8ecoAAA8AxO+6dTbynWs75bFOs9C/4zh4kQhXy91KJ4H2qbK7Yr4zyauNowdeUDAOAePMz3LAwV31OhY40triD0nN8aUci3S61e/4gF/xoREmJxixIAcO9OHRbmFOJtsd3rKsMadag44/wyRweAev8956KgBwAYdtq/hlQX2K264I4+bTFebzc0Tj1GmOpza/tQWzuf9v0t6iK6/uR/qLguVwFK36HXIRuj7lurt6u1YxbZvtp+c/YxdKtPuz7rV0JCuQJQ2ue8LrJ1tal2AIAtRM3Ry12GBQhHF+PCAgBwBj3Dwmn/dCpMiUK853+OMYIAAPAMTnVlYejWHRizd+F+y/5KmBEsAIBeen54eupvcAYAAMb1DAsP86dTAQCAbQkLAABASlgAAABSwgIAAJASFgAAgJSwAAAApIQFAAAg5XsWTqj+W7k9zu/eX353y5eYbWHv/QEAHMn3LDyZKHR7FrsREPb6huwjCvfYX8//NAAAz0JYoJsjP+EXGAAA1nva25DaQrI9jrH2UgSXPtk5WDN+UfaTmbP9lLgdaegKQ32rUmj7te2h7TM0/7K+HEPbp92ufl+2yUyN0xraPwDAPRmrj9Z66isLUSSWpVYXkaWt/UcohWgsY21lqc0Zf8za7aeUIFDfrlSHgxIy6vbysyjnYEhpj2XJ3Ouxh/azdGwAAP7hKcPCVCEbporRqe2nTI0/Ze32U+rivw0CW1gz562OPbbtce4AAB6FZxY6iAI0AklZeqjH77UPAACem7DQSfnUugSHrdXjl2VPcStSWXpceQAA4HhPGxamCvi6vUexv3b8OdtEn6Vzb59RaEVAKEtPS+c/x5rzAwDwDPw1pKv2OMbao23qfS07R1PjZ6b6tPspfdr1WfEf6sK/7TPWFrLQEPsfOvb2WMbmXrfPeV1k62rRHsb6AACcXalpevANztwswkIbDrJ1U8V6b3P2f/QcAQDW6hkWPLNAN1GE9/zlHTMVAqJdUAAAGOfKAouM3abU2rsoFwIAgGcStU8vwgIAANyxnmHBbUgAAEBKWAAAAFLCAgAAkBIWAACAlLAAAACkhAUAACAlLAAAAClhgVX++u0Pr68AAHg0wsJCz14kt8ffvv/1z19+YwEA4P74BueFojj+7t9+c333nOqAUJ+LCAc/+9U3fy+ydQAArOcbnDdWitz42X4iXpS2tk/9PmsPc99n24ap9inlFyZ+Zr887br6fdkmW+aaGwpuHRcAgH097W1IUYTHp+GxtAV5eV/aQ7auvC7vbzG2/zDVPiWK8LjqE8uSgry+YpRdPSrzC0vnCADAuT1tWCiF7pC6farvErfsf4k1t4dNBYXQzm9svkO3IMXYa+YJAEBfHnB+LSt045PyeulpbTA40tTcPdwMAHC/hIUBUQS3C7cpQcGDzQAA90lYGLDV1YTeVyXW6vWA8Zyg4AFnAIBzExYS5SpCfRtSW/RHnzltZ7wiEc8JlEK9xzMD9a1H8bosAADcF9+zwKF6BRYAgGfR804NVxY4RM8rGwAAbENY4BAREgQFAIBzExYAAICUsAAAAKSEBQAAICUsAAAAKWEBAABICQsAAEBKWAAAAFLCAgAAkDptWCjf8AsAABzjtGGhfMOvwAAAAMdwGxIAAJASFgAAgJSwAAAApIQFAAAgdfqwUB5y9qAzAADs6/RhIUJC+ctIAADAftyGBAAApIQFAAAgJSwAAAApYQEAAEidNiyUv4DkwWYAADjGacOCv4AEAADHchsSAACQEhYAAICUsAAAAKSEBQAAICUsAAAAKWEBAABICQsAAEBKWDih8oV0sdyre5//LbY+zmc5bwDA+b149dr19SK+OK2fKBqHzu9Y2x6m9l8K3r3nOFZo95jL1Hn49c9fXn72q//fHutrbZ+j/30BgPsxVv+s5coCXUShe0SxW/Zb9t2+39KcoDAmAkIWJEKM2/M/PgDAHKe8svD+p19cPn7nreu7fxhaV6vbS/+xPkNKEViKtewY20Ku7TPWXsYv2vdFtr4dt8i272HO/us+c+cfhsYIU+Nkxx99su3m9F06flGuKGRXFuauGxs/lDmO9QEAHl9bt2zptFcW2iK/VcJAWTJljLE+Q0qhFkv7D1AXaaVQq/vU29Z9tlCP12P8KXP2n61r1e1t3yPPb5jafyhzGDJ0xSAzdAUixm/3CwCwp1OGhanCvgSFOW4NCcVUAVq3T/U9m79++8N02cucc7fH+R0rxPfYf4SE7IrCXDGvXnMDAAh38czCLeGg1m6zZXCIQrNeatF/qO0Mvvu336TLmdTnrz2HW5zf2K6Mc4QSEpYGBQCAPTzEA85Ttyz1EIVmu9Tq9UcVpEOyqwqxnEl9/spSq9ef7fzOISQAAPfg9GFh6qpC/VxCsUd42KpAPaLQza4qxHImRweAev9bzyWCQv2cwtJbkWJeR58nAOCxnfZ7FrIQUKvb20DRvr9VFGBTx5UVaWWbti0bq/Qpn4zXfbKxQztO3S/bR29D+x+bf32sQ69DNkbdt1ZvV2vHLLJ9tf3m7GNo/FCHgaIOBG17FhbGxg9ljmN9AIDH19YtW/KlbLDQVDG/1pzxe88BADi/nmHhIZ5ZgCNEkd7rP+dUCIh2QQEA6E1YgBV6BIY5ISDaBQUAoDdhAVbaumgXAgCAsxAWAACAlLAAAACkhAUAACAlLAAAAClhAQAASAkLAABASlgAAABSL169dn29yDP+Tfj6S7h6HP/7n35xfXW5fPzOW9dX/Zztm4DXnt+zHQ8AQE917bQ1VxYWiEK0ZzEaAWGPkBDOWFjPOb9j/yli257/aQAAnoWw8MQe+RN4gQEAYL3T3obUFnrtfsbaSxFc+mRzXDN+UfaTmbP9lLgdaegKQ32rUmj7te2h7TM0/7K+HMNQn1rbZ6y93W/7vsjWt+MWc7evlbHG+gAAnN1QfbSFU19ZiCKuLLW6yCtt7UkqhWIsY21lqc0Zf8za7aeUIFDfrlSHgxIy6vbysyjnYEhpj6Wd+9Tx1dvWfbZQjzc1fqxv5w4AwHynDAul2BxTt2d9p7afMjX+lLXbT6mL/zYIbGFqzr2Pbw8x73udOwDAHp7ymYUoECOQlKWHevxe+9hLVlCPHd8e5xcAgP6e9gHn8qlyKWy3Vo9flj3FrUhl6XXlYez46vUCAwDAfTptWJgqMOv2HsXo2vHnbBN9ls69fUahFQGhLD0snXdrq3GWWHP+AQCewUP/NaQie1/LjmFq/MxUn3Y/pU+7Piv+Q134t33G2kIWGmL/Q8eera+NHV/bNrSPEG3t/rKxQztO3W9oH9n6op4DAMC9GqqdtuAbnB9QhIU2HGTrporpezfn+B79HAAAj69nWHjaZxb4+lP9RzQVAqJdUAAAGOfKwoMau02p9WhFsxAAADyTqH16ERYAAOCO9QwLbkMCAABSwgIAAJASFgAAgJSwAAAApIQFAAAgJSwAAAApYQEAAEj5noUF6r9l2+P46y9UG/syta3s/SVmvjQNAGA7vmfhZKLQ7VnsRkDYIySEIwr32F/PX2oAALYhLDyxIz/hFxgAAM7vtLchtYVku5+x9lIElz7ZHNeMX5T9ZOZsPyVuRxq6wlDfqhTafm17aPsMzb+sL8fQ9mm3q9+XbTJT47SG9g8AwNfG6q+1Tn1lIYrEstTqIrK0tSepFKKxjLWVpTZn/DFrt59SgkB9u1IdDkrIqNvLz6KcgyGlPZYlc6/HHtrP0rEBANjHKcPCVCEbporRqe2nTI0/Ze32U+rivw0CW1gz562OPbbtce4AAJjnKZ9ZiAI0AklZeqjH77UPAADo6WkfcC6fWpfgsLV6/LLsKW5FKkuPKw8AADy+04aFqQK+bu9R7K8df8420Wfp3NtnFFoREMrS09L5z7Hm/AAAsN5D/zWkIntfy45havzMVJ92P6VPuz4r/kNd+Ld9xtpCFhpi/0PH3h7L2Nzr9jmvi2xdLdrDWB8AgGdXaqYefIPzA4qw0IaDbN1Usd7bnP0fPUcAgLPrGRae9pkFvr4qcISpEBDtggIAwLFcWXhQY7cptfYuyoUAAIDtRG3Vi7AAAAB3rGdYcBsSAACQEhYAAICUsAAAAKSEBQAAICUsAAAAKWEBAABICQsAAEBKWAAAAFLCAgAAkBIWAACAlLAAAACkhAUAACAlLAAAAKnVYeE73/nO9RUAALCn3rX46rDwgx/84PoKAADYU+9afHVY+PDDD6+vAACAPfWuxVeHhZ/+9KeXn/zkJ9d3AADAHt59992vavGeXrx67fp6sT//+c+XH/3oR5e///3v1zUAAEAv3/rWty5/+MMfLt/73veua/rYJCwUH3300eWTTz65fPbZZ5cvv/zyuhYAAFjrzTffvLz99tuX99577/LBBx9c1/a1aVgAAAAeh+9ZAAAAUsICAACQEhYAAICUsAAAAKSEBQAAICUsAAAAKWEBAABICQsAAEBKWAAAAFLCAgAAkBIWAACAlLAAAAAkLpf/BTgCWmpJS4NHAAAAAElFTkSuQmCC;" vertex="1" parent="1">
          <mxGeometry x="360" y="210" width="337.57" height="130" as="geometry" />
        </mxCell>
        <mxCell id="QgZdvH6-Uv-4IUFap3HK-16" value="" style="shape=image;verticalLabelPosition=bottom;labelBackgroundColor=default;verticalAlign=top;aspect=fixed;imageAspect=0;image=data:image/png,iVBORw0KGgoAAAANSUhEUgAAAwwAAAD1CAYAAAD9CnI3AAAAAXNSR0IArs4c6QAAAARnQU1BAACxjwv8YQUAAAAJcEhZcwAADsMAAA7DAcdvqGQAABaOSURBVHhe7d2/z/RWlQDgN9tSfrAKaKloibRFpIgKQZfQIqWNEOVKiL8EIW2JEA1FJAqqtJQQlGKlUCFRsRLRiu8foMnmfJkLNzf32B7b1+N553kkazy+P+2Zeeecseed1z79zBMAAEDHv11uAQAAvkTCAAAApCQMAABASsIAAACkJAwAAEBKwgAL/PsbP7qsAQA8FgkDzBidLET/EhIA4Kz8DgOHK8Hx/338y1e3Z9UG8Vvn29vvvccYLUtszj5vAGC93ROGLKCoCS6OUz8eZznuvcD5bEYct2y/7+F4hPqY9Jx9/gDAOi5JgkQEwEcEwUeNs5cy33becwkFAHCfhiUMbVBRL3B2nqdfNHUWxLECgOdt2CVJS4KIum796WTbtvfJZakzN96atvX2XvtQt5kaI7Ok39q1cwpZvbC07tx+ZHr9lb7qfek5Yi5hqr+1c1iz39n2Yk2fRa9tyOpn5sYBAJ6vUyQMrTYYWqId76i2U3rHYEnfa9uFuu1Um6X1it6ceq45dm2fe84jrO1vTbs99nvPPsPa/e/pzTGbNwDwvJwqYWjb1OVTZeFWbcPa9rcuC1va9iztL1wz3si51GVr57C0LGTlI/oM15Rl6jm2YxdL+wIA7suw7zBEUNEuU64NaqaCky1ta0vaXtP/HvOaazd3nGvXzGdJv1v2b49jU1vT39rjsffcw5Y+1+7HElN9X9sXAHAfTvFfkqaCnylr24UtbbdaMvZzDb7m9v3IYxNjHfU8GDHOUXNv1cetXgcAnqdD/0vSGmvbhS1tR4qAN1tuYeo4rTmGW45775iUZY2957/3sZqzpc8Rc51rt/ZxAgDOy+8wAAAAqdMnDFOfWM59mrml7UjxKe2S5Sh7H6ct/fWOQ29Z6sj5b9nvzJY+R8wHAHg8zjDcwFwg98jB3JHH5tGP9RqOFwA8ntMmDPWnyL0gZSpw2dJ2pLPN65r5LPlU/0yP2Zr+1h6PvecetvS5dj+mTPW5pj8A4H6c5peeM21wUot2U32sbTs3r7rfuTrXzitMtbl2TtlYS+oU2ZiZqf6ir6l92XMuc32FPeewdr+z7WFtn2Gqbei1mbJ3fwDAfTj9JUlZELIkONnSdqSp8fee25bjFNbMJ2tz9Fyi/pr+1s5hTX9ztvS5Zq5Tos2W+QAA92n3Mwz3ZOrTWbgHnsMAwGi+9AwAAKSeZcIQn7qWJTNVBrfmOQwAnMWzvSSpDabqSzbqMpdycFaewwDAGTzr7zAs+QRWsMWZeQ4DALf2EF967gVdgizuiecwAHArD/1fkgAAgGn+SxIAAJCSMAAAACkJAwAAkJIwAAAAKQkDAACQkjAAAAApCQMAAJCSMAAAACkJAwAAkJIwAAAAKQkDAACQkjAAAAApCQMAAJCSMAAAACkJAwAAkJIwAAAAKQkDAACQkjAAAAApCQMAAJCSMAAAACkJAwAAkJIwAAAAqdc+/cxlfTfvv//+0wcffPD00UcfPX3yySeXrQAAwFavv/7605tvvvn0zjvvPL377ruXrePsmjD89a9/ffrpT3/69Lvf/e6yBQAAGOV73/ve089+9rOnb37zm5ct+9s1YXj77bef/vjHP17uAQAAo7311luvru4ZZbfvMPz617+WLAAAwME+/PDDV7H4KLslDL/97W8vawAAwJFGxuK7JQwff/zxZQ0AADjSyFh8t+8wvHjx4rIGAAAc7eXLl5e1ffkdBgAAICVhAAAAUhIGAAAgJWEAAABSEgYAACAlYQAAAFISBgAAICVhAAAAUhIGAAAgJWEAAABSEgYAACAlYQAAAFISBgAAICVhAAAAUq99+pnL+iYvXry4rI3xw9//5bL2ud9851uXtXMo8zvbvP77f/7j1e1//ef/vrrlOnsev5cvXw5/ndT2HC/6CkfOHwC4Tnm/3ttdnGGog/GyHCnGbxOWsygB7dnEvLJlb6P63dPRyUKI8fb4w1HmLlkAgMd0F2cYIli/5Sf3tx5/SgTKZz97MHKOpe8zH4dbJAu1rePfev4AwDJ7fFDYc/cJQ1tW3y/rcVv0+qnLQ92+p+2j1Ov1HbLxY3vcz8qnZJ+o10FzXacNprP2IesjzPXTC9qjTq/dkrpLxo9tU/21en2EbHvI+i5jh16dkAXcZXt5cbd12nb1/dKmZ66fa21tDwAcYyo+2OLUlyRFIF2C6bJeB9dLRP0IwqeC+VLe1qvv98pDaZ9p+2/nPze/TASnJUAt623A2tvWqsvbunUgXMrqILoEzPWypyXj13r327mV26Ku07av22Wm2oe5YLuUx7LmRV73nY2ztm8AgHDqhKEOpMt6HVi3wfe15oL9MDfGVPsl/d9SHQxngfGSOlv1Au1ibvyybe3ctu7T1vZZkL/EkmQBAGCr03/p+ZqAvVd3j4B9ZNB/5oQiRDBfL7UIlrOypaJd6ecWts7/OYuzEnNnSACA5+/Z/Q5DFoDPJR5b7HEmYeT8tohgvl1q9fYjg+4yVhvwt3Ooy9u5l21l4YsiUYjF5UwA8NjuImFYEoy3Afeosw1b1InFGefX0wbgR6vHb+dSB/tZ0D9VVrv1fs4RtAMAt3L3Zxgi8K4D8dpcAB7lpX1ZWm2dTK+8bdvOZ25+S0QgHMFuWWr1tqzOlBJk123r9u32uaC8VuZd2rT3Q1kv/Ye6fInStu6jKGO224u6rKxndTNbPqEvbbdeFrS1PQDw2E7/b1V7gTYsEcF9m2D0to1264BdwgEAjyHes0c49RmG9hN7uEcRbI96Ac8R7AMAW53yDEOdKDi7wBbtJURHn12oHR287zleSXgkHwBwXqM+oLyLX3oGAACmjUoYnt2/VQUAAPYjYQAAAFISBgAAICVhAAAAUhIGAAAgJWEAAABSEgYAACDldxjuWP2/dkcc/6N/QC/7obE/ffijV7fffuuXr26fm3vdv+zxAgBuw+8w8CURrI0M2CJJOOqXtgWf9ycer1F/mACA85AwcHOShfslaQCA588lSTPaYKjdz6nyEgiXOr1jtKX/oozTs6T9nLg0KTvTUF+2FNp6bXlo60zNf0pcyhOX8WSX9JTyor5f2vRcc2lQ209vDrVr+t6qHNfyHGiPcXvc6/ulTc9cP61sfABgX1Pv31s4w7BABDplqdWBUClrH6gSTMUyVVaW2pL+p2xtP6ckA/WlS3WCUBKNurzcFuUYrFWSgFimkoBMHcBfG8yX8cr4oZ5DPbe6zpHK8Y1lzWNfPzbZ47S2bwDgPkgYJiwJZucCqrn2c+b6n7O1/Zw6AWiTgSNsCcLrtmv72aOPkbY85ns9d6LtiOceAHAMCcMNRRAVSUlZRqj7HzXGI4uzCPVSiwQiKwMAuBcShhsrn76W5GFvdf9lOVJcllSWW5yBGC2Sgnap1dslDQDAPZIwzJgL4uvyEQH/1v6XtIk6a+fefmehFUlCWW5pVLB+RBKw5fFZamT/R8wfABjHf0ma0QY67X5OlUfZ3P1a7xjO9d8zV6cdp9Rpt/cSgFAH/22dqbLQSxxi/N6+z4lgvf5Ev70fSkBfPuEv5UvWlyj91+q+atf0W8senzntce0d57rvunzJetHbVovyMFUHANiuvOfuTcLAMJEwtAlCb9tcwMm5j9GSuXmMAWC8UQmDS5K4uQgkRz3B710clzMH23NzO/v8AYB5zjAw1NQlSy2B5X3xeAHAucR78wgSBgAAeAZGJQwuSQIAAFISBgAAICVhAAAAUhIGAAAgJWEAAABSEgYAACAlYQAAAFISBl7521ffu6wBAMC/SBgeXJsotPd/8ZOXX1gAAHgsfumZLyQJX//7ry5rnycLP/75Fx/X3jYAAG7PLz3fSHvgRz0QPWWsuO2NOzW30qa3LLU0Mbi2XwAA7oeE4eQiEI+zN7GsCcrrMz+9s0BxdqGcVYhb32UAAKAmYVigBOrXBuwRfPeWa2y51GsuWQj1JUihvV/LLkeKvrfMEwCA85IwzGgD4WsC4wi+e8sZzc3LF54BAB6ThGGg3tmFWO5NSRZ82RkA4PFIGAZqzyyUZYRRXzpekizE2KPGBwDgtiQMC8RlSBEQn+06/TKvUXOrL0OK9bIAAPA4/A7DQmdMGM7E8QEAuK2Ix0ZwhmEBwXAujo3jAwDwfEkYJpRgmFwkCpIFAIDnyyVJAADwDIz6oNsZBgAAICVhAAAAUhIGAAAgJWEAAABSEgYAACAlYQAAAFISBgAAICVhAAAAUhKGwf721fcuawAAcH8kDAAAQErCMKGcHYjb7ExBKWvr1Pd75WHp/V7bMFe+RPsT4r2fFI9to35qHACAc5MwzIhA/Ot//9WrpQ3Ky/1SHnrbynq5f42p8cNcOQAAbCFhmDEX5Nflc3XXuGb8tcrZg+wswosXL14tAAA8HgnDFXrBeXyqXy8jjUhI2kRAYgAAQE3CsFEE8e0CAADPhYRho73OKow+O7GFLz0DADwuCcMG5WxCfUlSG/hHnSVltzwzEZchRULgciQAAFqvffqZy/omgs37NpcwSCgAAM5t1BUhzjAwmQxEmWQBAOBxSRgeWEkGpkSiIFkAAHhcLkkCAIBnYO6D4LWcYQAAAFISBgAAICVhAAAAUhIGAAAgJWEAAABSEgYAACAlYQAAAFKnTxiW/LgYAAAwxukThvJLw5IGAAA4nkuSAACAlIQBAABISRgAAICUhAEAAEjdTcJQvvjsy88AAHCcu0kYIlEo/zEJAAA4hkuSAACAlIQBAABISRgAAICUhAEAAEidPmEo/xnJl50BAOB4p08Y/GckAAC4HZckAQAAKQkDAACQkjAAAAApCQMAAJCSMAAAACkJAwAAkJIwAAAAKQnDiZUfrYvlXt37/G9tz+N3bT/38LjteXwe0Z7H79p+PG4A9+O1Tz9zWd/Ej6uNE2+s2fGdKjvC3PglKDh6jlPByN5zGbmPe/Xde5x+8ZMvHqMf//zLY/TaHWlu/JHHfkoZt2fvuYzcx7367j1O7fMrtM+xXjsA1pt6f9pCwnAHpt5Ub/2Gew9v+CPnWPo+83FYOrcI8M6WNJz5uBYj51j6PvNxyOaWPZ9a9/AYA9yL+Js6wqkvSfrh7/9yWfuXbFu91Mr9qTqZctDjNnsASllWZ6p87v6Uur+yfk37rZaMn20PdVm71KbKwlx5Jqvbbq/7ztpMadv3+pjb3isLZftUnTP421ffu6wtV+9TWW/3Mdse6rJ2qU2VhbnyTFa33V73nbWZ0rbv9TG3vVcWyvapOke49fgA3MF3GOaC+yj/zXe+9c+lp/QxVScTb1Tx6Vf5lK9W7pfyUNep29Z19lD3N6L/OUvG721r1eVt3Vse37Bk/Frvfju3clvUddr2dbvMVPtQyrfI+h6p7FO9Xu4XvW2turytW/ap7qfez3Ls6mVPS8av9e63cyu3RV2nbV+3y0y1D6V8i6xvAM7j1AnDXHBfkoUlrk0Uirk3w7p86xvn0eKT395ylCXH7ojjOxWszI1ftq2d29Z92to+Lhspy5LLR+5JfWyy47SkzlaeX58va8Ucts4DgG3u6r8kXZMg1No2eyYPEQzUSy3qZ2Vn8PW//6q7nEl9/NpjuMfxjXaln1vYOv+tIkkoy5agrtUmoO39s6iPf/sYeH5tUz+39n5+AXCsZ/VvVecuXxohgoF2qdXbbxU0ZOogrl7OpD5+ZanV2488vmWsEozV92t1eTv3sq0sz0mbgLb3z6I+/r3Hod7ePrYjlbHKc6e+X6vL27mXbWUBgLXuJmGYO7tQf0+hOCKBaN/A19qrn2vUQVy9nMktjkutHr+dSx2MZUHZVFnt1vv5qDy/jrHl7ELM/dbzB3h0p/+3qr1EoFaXt0lFe/9a8Sa15o24tGnLen2VOlHWjtfrO7T91PV6Y4yWjT81/3pfs/XQ66OuW6vb1do+i95Ybb1sjCV9tm3D0v5Dr33I5tDeL7LtbRAXl430ZO2XirNWWxLR+ji0+9sTdeo5Z+uh10ddt1a3q7V9Fr2x2nrZGEv6bNuGpf2HXvuQzaG9X2Tb93p+lXlO1QHgc+Vv5t78DgMM0guE5oKjEbaOeYs5M++Rnl+egwDLxN/LEZ7VdxiAL4tAa+0fEIEac0Y+v6LccxDg9pxhgIHaQOqWr5NrAy+B2vl5fgFQa98X9iJhAACAZ2BUwuCSJAAAICVhAAAAUhIGAAAgJWEAAABSEgYAACAlYQAAAFISBgAAIOV3GDao/9ftiP3/4e//cll7evrNd751WRsn+yGlP334o1e3337rl69ulyrtwrVtz+AW848xz3as1j7+Z7f19Zu9XgDgVvwOwwlFsDAyYIgk4YhEIYwIfiLAvOcgc8n866SC+7Lk9Tv1hzfajvrDDABnImHAJ6WwkqQBgEdw+kuS2jfjdpyp8hIIlzq9OW7pvyjj9CxpPycuTcrONNSXLYW2Xlse2jpT85/TfsLe+0R+7WU2pd3UJTFz40+Vt/Nq7xe97W2/RdY+9MpC21c7p1rWR2au/db+tyjPu/IayV5btbbOVHn7vG7vF73tbb/F0va10tdUHQDYQ/b+tdVdnGGIN9qy1Oo34lLWHqjyZh7LVFlZakv6n7K1/ZySDNSXLtUJQkk06vJyW5RjsEYdCJdAsw1At4r+Sv9t33Pj123rOnuo+5vqf2r+oZ1jrdSvy3p9ZObat2OXOkcqz79Y2tfG3OunblvX2UPd31z/sb2dOwA8J6dOGEpAMKUu79Wdaz9nrv85W9vPqROANhk4Qh1kjgg45/ocPf5WU3MqAfuUrfu3tf1oc6+J0a+fI8S873XuABAe+jsM8SYeSUlZRqj7HzXGLUXQWy8j9QLeqfGjflZ2lDON387hDMen1guqp14/R7x+AQBfev7np38l+Nhb3X9ZjhSXJZVlxBmICDrb5Uhz49fbjw6KY7x6/Fuox+/No95+hqShNff6qbdLGgBgjNMnDHNBQF0+ImDY2v+SNlFn7dzb7yy0Ikkoywi3DjL3Gn/0fmT919t7debK56xpc60tz985e/U7an5LjDw+AHCEh/gvSUXvfq23D3P998zVaccpddrtvQQg1MF/W2eqLPQShxi/t+9L9ALS8il2Fqy2n3Jnov1c3WvG7/VV6kRZO16v79D2U9ebKgtzbefm0Laf07YPpY+tfRfZ83fOkufd1OunLev1Vc+tHa/Xd2j7qetlY/S2F/UcAGCk7L1tK7/0/IxFwtAmCL1tcwEPzHnk59CSffcaA+AIoxKGh/8OA//69BWuFc+bRw6G5/b90Y8PAM+DMwzP3NQlSy2BDSzn9QLA2cR70wgSBgAAeAZGJQwuSQIAAFISBgAAICVhAAAAUhIGAAAgJWEAAABSEgYAACAlYQAAAFISBgAAICVhAAAAUhIGAAAgJWEAAABSEgYAACAlYQAAAFK7JQxf+9rXLmsAAMCRRsbiuyUMb7zxxmUNAAA40shYfLeE4b333rusAQAARxoZi++WMPzgBz94+v73v3+5BwAAHOHtt99+FYuP8tqnn7msb/bnP//56bvf/e7TP/7xj8sWAABglK985StPf/jDH56+8Y1vXLbsb9eEoXj//fefPvjgg6ePPvro6ZNPPrlsBQAAtnr99def3nzzzad33nnn6d13371sHWdIwgAAADwPfocBAABISRgAAICUhAEAAEhJGAAAgJSEAQAASEkYAACAlIQBAABISRgAAICUhAEAAEhJGAAAgJSEAQAASDw9/T+auMjIdrsazgAAAABJRU5ErkJggg==;" vertex="1" parent="1">
          <mxGeometry x="720" y="210" width="477.55" height="150" as="geometry" />
        </mxCell>
        <mxCell id="QgZdvH6-Uv-4IUFap3HK-17" value="" style="shape=image;verticalLabelPosition=bottom;labelBackgroundColor=default;verticalAlign=top;aspect=fixed;imageAspect=0;image=data:image/png,iVBORw0KGgoAAAANSUhEUgAAAxoAAADRCAYAAABLh8S4AAAAAXNSR0IArs4c6QAAAARnQU1BAACxjwv8YQUAAAAJcEhZcwAADsMAAA7DAcdvqGQAABC8SURBVHhe7d2/yyTVmgfwnk0NXRdX1shY2EAQI9FsNBUmleWGCxf/Ermw4WXZxEAwMJrU0B8YLJgJRi7ssKz/gMnsPGOf5dxD/eqqp6pPv/35wOGtrqpz6lT1O/p8u7r7ffT8hRMAAECivzv/BAAASCNoAAAA6QQNAAAgnaABAACkEzQAAIB0ggYAAJBO0AAAANIJGgAAQDpBAwAASCdowIx/ePtfzksAACwlaMCEvUNGjC/IAAAP0aPnL5yXYXelqP6fn/795c9etcX/1vkOnXf2MfawNAT1/nwCAMdLDRpLihIFyXHq56OX6z5UcPdmj+s2dt69X4/6Wkzp+fkEAK7DW6dgQBTORxTPRx1nrTK/sQYAMGaXoDFUkJQGvfN7uszSux0AwH3a5a1TSwq1et+6YGn7DhUzZZ+5463pW68f6h/qPlPHGLNk3Nqlcwpj+4Wl+86dx5ih8cpY9bkMOWIuYWq8tXNYc95j64s1YxZDfcPY/peaOz4AcN+uHjRabRG1RHu8o/pOGboGS8Ze2y/Ufaf6LN2vGJrTkEuuXTtm5jzC2vHW9Ms478wxw9rzv8TY3AEAQjdBY6rQmtoWrtU3rO1/7W1hS98hS8cLlxxvz7nU29bOYem2MLZ9jzHDJdsuMTZvAIBil89oRBHStimXFkNTxc2WvrUlfS8ZP2Nec/3mrnPtkvksGXfL+WVcm9qa8dZej+y5hy1jrj0PAIBsV//WqTWFWFjbL2zpu9WSYz/UAnDu3I+8NnGso34P9jjOUXMfIqAAAEsc9q1Ta6ztF7b03VMUaWPtGqau05pruOW6D12T0tbInn/2tZqzZcwj5rrHOQMAD4e/owEstjb0AQD3p+ugMVXUzBU8W/ruKV4FXtKOkn2dtow3dB2G2lJHzn/LeY/ZMuYe86ld8jwAAPfJHY2DzRWAGUXgrTry2tz7tV7D9QIALtFl0KhfLR0qbqYKni1999TbvC6Zz5JXr3t6ztaMt/Z6ZM89bBlz7XlcYm0/AOC+dPGXwcfMFVRTY6ztOzevety5fS6dV5jqc+mcxo61ZJ9i7JhjpsaLsabOJXMuc2OFzDmsPe+x9WHtmGGqbxjqM2fqeAAAra7fOjVW0CwpdLb03dPU8bPntuU6hTXzGetz9Fxi/zXjrZ3DmvHmbBlzzVynzAUXAIBW6h2NW+LVWW6d32EAoGc+DA4AAKR7cEEjXuUtbczUNrg2v8MAwEPwIN861RZh9VtL6m3eckKv/A4DALfuwX5GY8krvoo0euZ3GAC4ZQ/+w+BDxZrijFvidxgAuEV3+61TAADAfnzrFAAAkE7QAAAA0gkaAABAOkEDAABIJ2gAAADpBA0AACCdoAEAAKQTNAAAgHSCBgAAkE7QAAAA0gkaAABAOkEDAABIJ2gAAADpBA0AACCdoAEAAKQTNAAAgHSCBgAAkE7QAAAA0gkaAABAOkEDAABIJ2gAAADpBA0AACDdo+cvnJdTfPnll6enT5+efvzxx9OzZ8/OawEAgK1ef/310zvvvHP66KOPTk+ePDmv7VNa0Pj1119Pn3322embb745rwEAAPbywQcfnD7//PPTm2++eV7Tl7Sg8fjx49MPP/xwfgQAAOzt3Xffffluoh6lfEbjiy++EDIAAOBg33///ctavEcpQePrr78+LwEAAEfqtRZPCRo//fTTeQkAADhSr7V4ymc0Xn311fMSAABwtN9+++281A9/RwMAAEgnaAAAAOkEDQAAIJ2gAQAApBM0AACAdIIGAACQTtAAAADSCRoAAEA6QQMAAEgnaAAAAOkEDQAAIJ2gAQAApBM0AACAdIIGAACQ7tHzF87Lq7366qvnpX188u0v56U/fPXeW+elPpT59Tavh+S3337b/ffsnmRezxgreH4A4HrK/4970v0djbqIL+1Icfw26NyDf/vPf3rZau3jo1w7ZPT4D3eJmHfdanE9M84rxoixhAwAoHUTb5269p2CueNfIwDdi1LIXktGMX4NdQAorT2XoXUAAFm6f+tU3E0YK+LbbfXjslzfjRgap94e6v5D2jHKfkNjh7Hjx/p4PLZ9ifYOw7/+83+dl/7YNvZ46s5EvU8st/2GlkO7bUzbp1ZvK8aCRllfCuV2n7Zf/bj0GTLUpx0rQz12aMdvj1k/Ln2GTM2zHTMMrbvE1v4AQI6p+uBaur2jEQV4KcLLcl2ULxH7R/E+FQLK9na/+vHQ9lD6j2nHb+c/N78ppbCv26XqPmv6z5kaf8n854rYsj3amn9c9dhDx5k6doa957/E2mMDAMzpNmjUBXhZrgvytmi/1FxICHPHmOq/ZPxrqgv7oSJ/q73HD2uL65BRpG915PxLqAEAOErXn9G4pNAf2jej0N8zLGwZO4r3uCtQ2l7KcbIdNX/2uZUaYwovAMCUm/gw+FJjhftcYNki487F2vlFsV7aLRbrtz7/W1BCRnYgiPGi7RFiAICHofugsaSIbwv1ve5ubFEHkqPnt7WInwsCvYeEPYvh8sr+ntaOX/q56wAAXMNN39GIgr0u4GtzhXtsL/1La7X7jBna3vZt5zM3vzlR3NctwkCthIOhbRm2jl/6To2x5RXz0jfa2kK79G+Xj7B1/vVcyzj1umLt+AAAc7r+etuhAp37cguF8C0X61vnLqgAQB/i/8m96faORnuHgPsURWyP/3BCzOuWC20hAQDYU3d3NOqA4W4GhaI4V+b1jLGC5wcArqf8/7gn3f9lcAAAYFqPQeNBfb0tAADQB0EDAABIJ2gAAADpBA0AACCdoAEAAKQTNAAAgHSCBgAAkE7QAAAA0gkaG/z33396XrpvPf6BmBDzqhsAAMcRNNik55ARf7G+bsIGAMBx7jZolLsR8XPszkTZ1u5TPx7aHpY+Huob5rbPKUV1/BwqsNt19ePSZ6jV4nEU8FPG5l7GGho3DB2rKH2GWjE3r6LtBwBAjru+oxFF8D/+73+8bG1BXB6X7WFoXVkujy8xdfwwt31OFNBbXs2vi/Whwn1pMT9m7/kBAHA9dx005sJBvX1u3zUuOf4aW4rvI4r4I+dXQk0r1m2ZBwAAw3xG42yoqI+7CHXb0x5B5lraa9Y+PtqauyUAAGwjaEyI4r9tzGuvV/v4SCVkuGsBAHAsQWNC1ivw13olf6neX/FfO78lISP26f38AQBukaAxorz6Xr/tpw0Msc+Sbdd4JX9OFN+lyF77an9dpNfLGbbOr55LGadeBwDAvh49f+G8vNraQhV6sDbMAAD0oscXVN3R4G6VuxxCBgBAPkGDuxUBQ8gAANiHoAEAAKQTNAAAgHSCBgAAkE7QAAAA0gkaAABAOkEDAABIJ2gAAADpBA0AACBd10Gj/OVmAADgtnQdNMpfbhY2AADgtnjrFAAAkE7QAAAA0gkaAABAOkEDAABIdxNBo3wg3IfCAQDgNtxE0IiAUb6BCgAA6J+3TgEAAOkEDQAAIJ2gAQAApBM0AACAdF0HjfJNUz4EDgAAt6XroOGbpgAA4DZ56xQAAJBO0AAAANIJGgAAQDpBAwAASCdoAAAA6QQNAAAgnaABAACkEzRWKn9MMNoe9h6/ddRxenX0+c8d796fDwDg9j16/sJ5ebV7/qN6URDuef57jx+OOEbrk29/efnzq/feevkzxLr68VHGzv+vf/7bYv9Pf1l+jZb0nbvu13heAIDbFHVDbwSNjfYuBm99/DG9BI2x84+g0IaDoXVLjfWdu/7Xen4AgNsSNUNvug4a7QVrjzO1vRRoZZ+hOW4ZvyjHGbKk/5wt47fbw9A+Y+OXMFBMhYL6cduvVu8Ty22/oeXQbhvT9qnV24qp828JGgBAr4bqvmvr/jMaUWSVVisXs97WXuBSpEWb2lZabcn4U7b2nzM3fiyXbWV7+VmUfYaUwr5ul6r7rOk/Z2r8JfOfOv+jxPHr5601tx0AoFfdBo0lRWC9fWjfuf5z5safs7X/nL3H36Iu7IeK/K32Hr+15m5G9Clt7Z0QAIBbdbffOhWFeYSZ0vZQj7/XMfYSxXvcFShtL+U42TLnH0FhjQgXpa0dAwDgVt3119tG2ChtjyBQj1/akeqQs+bYUayXtmfY2EvG/EtAcEcCAOAyXQeNueK/3j637xpbx1/SJ/ZZO/e5+R0VcLaGkLkgcK2QsyRkbHn+AAAesgf/rVPF0OPa0DnMjT9kbp/2OGWfsfWtqfEvPXaI/YbWt8V9hIFW2acEhbLPpcshHoexdUvGaZdrZX1r7PzH3urUho5yndsx2v5jYWXs+MXcdgCAUGqSnvg7Gg/UUIG6dN09yTj/LWPM9b335wcAWCZqht7c9Wc0+CMk9viLeZQt5x/9tgSBub5bxgYAuDZ3NB6wtoBW1I47+vyFDAAgU1v39UDQAACAG9dj0PDWKQAAIJ2gAQAApBM0AACAdIIGAACQTtAAAADSCRoAAEA6QQMAAEgnaKwU31Vc2h4++faX/29H6PG7l4909PnPHe/enw8A4Pb5g30bRUG45/lH0PjqvbfOj/ax9zkMKQGqPrcjznXI0Pn/9c9/W+j/6S+XXZ+2f2jHmLvu13heAIDbFHVDb9zRuHP3XsyOnX+EgroNBYc57RitOO7UfxTmtgMA9KzrOxptkdUeZ2p7KSDLPkNz3DJ+UY4zZEn/OVOv8rdvq2r3a7eHdp+p+U+N386rfjx03KLeJ5bbfkPLod02pu1Tq7cVU+dfi6AxFBbGLN1/7vhL5wcA3Le27uxB93c0osgqrVYuZr2tvcClSIs2ta202pLxp2ztP6cU0VE8DxXgpTCvt5efRbkGQ9r+bd8l6j5r+s+ZGn/J/KfO/yhx/Knfi7ntAAC96jZoLCkC6+1D+871nzM3/pyt/efUxfNQIX1Ne8/tiHOPuxKlXXI3o6j7AwDcm7v9jEYU/hFmSttDPf5ex9hLFO9xV6C0vZTjZMuYf/lsRbRLw0Ldd01/AIBbd9cfBo+wUdoeQaAev7Qj1YX2mlf9o09pa4v1a7r1+QMA3LKug8Zc8V9v3yMobB1/SZ/YZ+3c6+J5qJCuC+09bS3i54JAzyFhyfPnbgYAcI8e/LdOFUOPa0PnMDf+kLl92uOUfdr1Y8V1HRrafaa2haHAEccfOvepsYuyTwkKZZ9Ll0M8DmPrlozTLtfK+tbY+bfhIN7+NGTs+buk/9Dxi7ntAACh1CQ98Qf7Hqi66C6G1t17IZtx/lvGmOt7788PALBM1Ay9uevPaPBHSOzxF/MoW84/+m0JAnN9t4wNAHBt7mg8YEvfPhTuvag9+vyFDAAgU9QOvRE0AADgxvUYNLx1CgAASCdoAAAA6QQNAAAgnaABAACkEzQAAIB0ggYAAJBO0AAAANIJGgAAQDpBAwAASCdoAAAA6QQNAAAgnaABAACkEzQAAIB0KUHjtddeOy8BAABH6rUWTwkab7/99nkJAAA4Uq+1eErQ+PTTT89LAADAkXqtxVOCxscff3z68MMPz48AAIAjPH78+GUt3qNHz184L2/y888/n95///3T77//fl4DAADs5ZVXXjl99913pzfeeOO8pi9pQaP48ssvT0+fPj39+OOPp2fPnp3XAgAAW73++uund9555/TRRx+dnjx5cl7bp/SgAQAA4O9oAAAA6QQNAAAgnaABAACkEzQAAIB0ggYAAJBO0AAAANIJGgAAQDpBAwAASCdoAAAA6QQNAAAgnaABAACkEzQAAIB0ggYAAJDsdPo/okKEwGuljRgAAAAASUVORK5CYII=;" vertex="1" parent="1">
          <mxGeometry x="17" y="460" width="693" height="182.41" as="geometry" />
        </mxCell>
        <mxCell id="QgZdvH6-Uv-4IUFap3HK-18" value="" style="shape=image;verticalLabelPosition=bottom;labelBackgroundColor=default;verticalAlign=top;aspect=fixed;imageAspect=0;image=data:image/png,iVBORw0KGgoAAAANSUhEUgAAAw8AAADhCAYAAACOeom5AAAAAXNSR0IArs4c6QAAAARnQU1BAACxjwv8YQUAAAAJcEhZcwAADsMAAA7DAcdvqGQAABQZSURBVHhe7d09yyzJdQDguU4VrmXWwooULzhYEIqElO0qFWy6GIUGsb9ECBwK40TBggJFmyrUBxsYNhMoksGL8f4BJVf33J1jl4rqrpr+mp53ngea293Vdaq6Z3bfc6bn49XrNy4AAAAdf3f9FwAAYJbiAQAAGKJ4AAAAhigeAACAIYoHAABgiOIBAAAYongAAACGKB4AAIAhigcAAGCI4gEAABiieAAAAIYoHgAAgCGKBwAAYIjiAQAAGKJ4AAAAhigeAACAIYoHAABgiOIBZvzDe/9yXQMAQPEAE/YuHCK+4gQAeCSvXr9xXYddZaL8P1/8+9t/z6pO6NfOt3XeW4+xt6ki5+zzBgC2tVnxMJVclCQaxykfj7Nc91YSfTZ7XLep836E6xHKa9Jy9vkDANvxtiWoRDJ8REJ81Dhr1MVUuaRecQEAvBybFw91glEucHaep22t6+JaAcDz2fxtSyMJRXls/cpmqfWKZh7TG29J33J/q38o+8yNMWUkbunWOYWp48Losb3zmNKKl7HKc2k5Yi5hLt7SOSw576n9aUnM1Oobpo6fMjrOrXEBgMd01+Khln2n2lvq8Y7qO6d1DUZiL+0Xyr5zfUaPS605tdxy7eqYW84jLI23pN8W571lzLD0/Fum5ph67QDAy3KK4qHuU7bPtYV79Q1L+9+7Lazp2zIaL9wy3p5zKduWzmG0LUy17xEz3NI2Z6pf7r8lFgDw2Db/zEMkFPUy59YEZy5RWdO3NNL3lvhbzKvXr3edS7fMZyTumvPb4tqUlsRbej22nntYE3PpefTU/XIJc/MBAF6eu37b0tLEY03Ccs9kZ2TsW5K6R9I79yOvTYx11PNgj3GOmnuau+4v9fkKALQd8m1LSyztF9b03VMkWlPLPcxdpyXXcM11b12TXJbYev5bX6ueNTG3nGt5/aNvuaSljxEA8Hj8zgPQVBcONQUEADyf0xYPc8lIL1FZ03dP5au2c8tRtr5Oa+K1rkNrGXXk/Nec95Q1MfeYDwBAcOfhQL2k7pkTuyOvzbNfawCApU5XPJSvLrcSvLmkb03fPZ1tXrfMZ+TV/jM9ZkviLb0eW889rIm59DymbB0PAHh8d/+F6SmtZCVFv7kYS/v25lXG7R1z67zCXJ9b5zQ11sgxaWrMKXPxItbcuWw5l16ssOUclp731P6wNGaY6xtafab0YqVbYgIAj+u0b1uaSkZGkpQ1ffc0N/7Wc1tzncKS+Uz1OXoucfySeEvnsCRez5qYS+Y6JY7v9bk1JgDwuDa78/BI5l61hUfgOQwA3IMPTAMAAENeVPEQr8bmMmWuDe7NcxgAOLMX97alOrEq39ZRtnm7B2flOQwAnNWL/MzDyCuzEi/OzHMYADijF/2B6VYCJuHikXgOAwBn8pTftgQAANzOty0BAABDFA8AAMAQxQMAADBE8QAAAAxRPAAAAEMUDwAAwBDFAwAAMETxAAAADFE8AAAAQxQPAADAEMUDAAAwRPEAAAAMUTwAAABDFA8AAMAQxQMAADBE8QAAAAxRPAAAAEMUDwAAwBDFAwAAMETxAAAADFE8AAAAQxQPAADAkFev37iur/bpp59ePvvss8vnn39++fLLL697AQCAtd59993L+++/f/nwww8vH3300XXvsTYpHv785z9fPvnkk8tvfvOb6x4AAGAvP/jBDy4/+9nPLt/+9reve46xSfHwwQcfXP7whz9ctwAAgL1997vfffuunyOt/szDL3/5S4UDAAAc7Pe///3bXPxIq4uHX//619c1AADgSEfn4quLhy+++OK6BgAAHOnoXHz1Zx7eeeed6xoAAHC0r7766rq2P7/zAAAADFE8AAAAQxQPAADAEMUDAAAwRPEAAAAMUTwAAABDFA8AAMAQxQMAADBE8QAAAAxRPAAAAEMUDwAAwBDFAwAAMETxAAAADFE8AAAAQ169fuO6vsg777xzXdvHj3/7p+va1371ve9c184h53e2efX823/+09t///Wf/+vtvyz31Vdf7f7fwTPZ8npGrODxAeAly793Rzj1nYcyMc/lSDF+XbzwtSw+pkR7uWypFXPrMUbdu3A48n8WW4p5l0sprucW5xUxIpbCAQC2c/q3Ld37Ff3e+PcoarYQdxz2uusQiXzG33Oce8vk9F62SLDvoUzqc6nPpbUPALi/U79tKV71n0rM67ZyO9fLuwatOGV7KPu31DHyuFbsMDV+7I/tqfaeTM7LV9vLBL1ur5P3qX5prn/Zt1Qf04qb6vZyeyp+KI+J9bpfaz3UbVPqPqWyLU0VD7k/k9/6mLpfuZ19Wlp96lhbKGOHOn49ZrmdfVrm5lnHDK19t1jbHwAexdzf362d8s5DJNWZWOd6mWiPiOMjIZ9L7LO9Pq7cbrWH7D+ljl/Pvze/nkyIp5Lisr2VCGe/KVP9y765ntulesxblTFb8deai1+eey61XmKa7bEs+Q+6jN0aZ27sLew9/xFLxwYA9nPK4qFMqnO9TLLrRPxWvcQ/9MaY6z8Sf60yoW0lt619t1jTP/rGEkl4Lrcox157Hi17xw9LE+awReK91pHzz0IFADi/037m4ZbkvXXsFsn7ngXA3sVFaa8EuSfGzbHX3oloidh7xl1S+HCbPe4sREwFCQDs4/QfmB41lYz3ipA1trjDsOf8zuJexcsaWfjsVaDw/4XD1kl+xItlj8IEAJ7dqYuHkcS8Tr73uguxRllk7DG/SG4fMUEPaxPzXnJ/9sR/zwQ3X4Hf09L42c/dAQB4LA975yGS8DIpL/WS8WjP/rnU6mOmtNrrvvV8evMbEUlxLrcWDtmvXM/tUZm0t/qW+3Mp51j2vXXuI9bGz75zMda8sp19Y1maPGf/ev0Ia+dfzjXjlPvS0vgAwH5O+1WtraSbry1NitnWIyS3j5yAr5274gOAZxF/845yyjsP9Sv5cEaRmB75H+stYl6PnDxL/AHgnE5VPOTbfIK7DjyCsxYQMa9nLxzysTnj4wMAj+rUvzANAADMO/KFshfzVa0AAMC+FA8AAMAQxQMAADBE8QAAAAxRPAAAAEMUDwAAwBDFAwAAMMTvPJxQ+V29e1zf8he8j/gxvq1+9GsrZ5sPAMAafufhyUViu2dyGwXDUb/gfe9EvfUfU8znyP/IAABeCsUDuzlj4ZAUEAAAt3vaty3ViWN9HnPtmRTnMa1rsCZ+ynFaRvr3xNuXpu5AlG9tCvVxdXuoj5maf+7Pc6iPqfuV29mnpdWnjlWaaws51twxAAD3Npcfbe2p7zxEUphLqUwas61+UDLxjGWuLZfSSPw5a/v3ZGFQvr2pLBay6Cjb89+U12BKtseyZO5l7NY4c2OnpWMDADyrpyweeolt2CI5ndOL37O2f09ZDNSFwRbWzHnvc08Re8/4AACPxmcedhAJZxQoueyhjL/XGAAAUFI87CRftc5CYmtl/FyOFG9dymWPOxMAAJzP0xYPvYS+bN8j+V8bf6RPHLN07vVnHGpRMOSyp6Xz38Ka6wcA8BL5tqWr+jzm2qOtt11qXaNe/JbeMfU4eUy9v1UMhLIQqI+ZawutIiLGnzr3+lzm5l62j6yH7F8q20Pdp5Yx5o4BALi3Vt6zF78wzc2ieKiLhda+XnJ+byPzO/s5AAAcWTz4zAO7iaT7yCfzLXpFQbQrHAAA/pY7Dywy97am2tmScEUBAPCSRG5zFMUDAAA8sCOLB29bAgAAhigeAACAIYoHAABgiOIBAAAYongAAACGKB4AAIAhigcAAGCI4gEAABiieFjov//+4+vaczvyR0luEfMqFwAA1lM8sNiZC4f45fNyUUAAAKz3lMVD3jWIf6fuIGRbfUy53WoPo9utvqHX3pOJcvzbSprrfeV29mktpdiOpHzO1NwzVituaI2Vsk9rSb15pbofAADznvbOQyS2//i///F2qZPc3M720NqX67l9i7nxQ6+9J5LiNa+6lwl4KxkfTdCn7D0/AAC297TFQy/hL9t7xy5xy/hLrEmoj0jMj5xfFiq12LdmHgAAz8ZnHt5oJerxan+57GmP4uRe6mtWbx9tyV0NAADaFA8TIqGvF/rq61VvHykLB3cXAAC2oXiYsNUr5fd6xX3U2V+ZXzq/kcIhjjn7+QMAnInioSFfJS/fclMXAXHMSNs9XnHviYQ6E+elr8qXiXe5voW18yvnknHKfQAALPPq9RvX9UWWJp9wBksLFACAszjyRVJ3HnhKeTdC4QAAME7xwFOKokHhAABwG8UDAAAwRPEAAAAMUTwAAABDFA8AAMAQxQMAADBE8QAAAAxRPAAAAEMUDwAAwJDTFg/5C8AAAMA5nLZ4yF8AVkAAAMA5eNsSAAAwRPEAAAAMUTwAAABDFA8AAMCQ0xcP+aFpH5wGAID7On3xEEVDfvMSAABwP962BAAADFE8AAAAQxQPAADAEMUDAAAw5LTFQ37Dkg9KAwDAOZy2ePANSwAAcC7etgQAAAxRPAAAAEMUDwAAwBDFAwAAMETxAAAADFE8AAAAQxQPAADAEMXDAvkDdrHsYe/4tT3G+fFv//R2Yb2jngepN97R8wEAzuPV6zeu64s88w+5RRK15/nvHT/sNUYWDr/63nfe/nur6D/Xty5Mlo7T0pp7bz57mXp8fvHTv03gf/Lz8cdwpG/veXHEcxMAGBN/l4+ieFhh7wTq0eOvMZes753In6V4mHp8IvmvE/7WvlFTfXvPjzM/fwDgmcTf5KOctnioL0I9zlx7JjV5TGuOa+KnHKdlpH/Pmvh1e2gd04qfiXIm0aGVSLeS7DDVL831L/uW6mNacVPdXm5PxQ/lMbFe92uth7ptSt2nVLaluce/pngAgOfVyvv2curPPERikkspL1DZVl+0TGximWvLpTQSf87a/j29+LGebdme/6Y8ZkomxFNJcdneSoSz35Sp/mXfXM/tUj3mrcqYrfhrzcUvzz2XWu/xOUKMXz6var12AODlOWXxMJI4le2tY3v9e3rxe9b279k7fpnQtpLb1r5brOkffWOJJDyXW5Rjrz2Plr3j15bcdYg+uSy9YwEAPJ+n/LalSLajQMllD2X8vcY4iyMS5JYYN8deeyeiJWLvGXdJ4VOL5H+JKBhyWRoDAHg+T/tVrVFA5LJHcl/Gz+VIZeFy9NhHu1fxskYWPmsKlEz63TkAAI5y2uKhl9CX7b1jl1gbf6RPHLN07r35bVm0RHL7iAl6WPvKfi+5Xxt/qZHCYc3zCwCg5UV/21JqbZda59CL39I7ph4nj5naX5uLf+vYIY5r7a8T4rpw6BUTUwl19qn7T8Ur49TH1+r+eUzsL+Pfuh5iO0ztG4lTr5dyf23q8Zl6m1FdSOTzoI5R958qQKbGT712AOAY+Tf/CH7n4QVqJXWj+0KZ6HI/WyTna2L0+m4xPwBgvfibfJSn/cwDXxd+Rz7ZuM2axyf6rUnue33XxAYAHpfi4QXKpLNcphK9PJZzWvr4RL+px7xn7vkSeu0AwMvlbUsAAPDAjnwh2J0HAABgiOIBAAAYongAAACGKB4AAIAhigcAAGCI4gEAABiieAAAAIYoHhaI79LNZQ8//u2f/m85wh7nceT8X7ojv7s59MY7ej4AwHn4kbgVIona8/wj+f7V975z3drHXueQhcPS+ffOvS5MtrxOrbkf8Vi0tB6fX/z0b5P3n/z8tsev7h/qGL3nxd7PfQBgXPxdPoriYYW9E6i9E9YzJ4Bz5773dTlL8TD6+EQxcEsBMXp8b/wzP38A4JnE3+SjnLZ4qC9CPc5ceyY1eUxrjmvipxynZaR/Ty+BLtXH1e2hPmZq/jluGaPsW7fPjV23hbn+Zd9SfUwrbqrby+2p+KE8Jtbrfq31ULdNqfuUyrY09/wqKR4A4LnVeeeeTv2Zh0hMcinlBSrb6ouWiU0sc225lEbiz1nbvycTz0g4W0lrJrNle/6b8hpMKWPkdqlsr9vKflOm+pd9cz23S/WYtypjtuKvNRe/PPdcar3H5wgx/tzzttcOALw8pyweRhKnsr11bK9/Ty9+z9r+PWXC2Uo+1+rFXzvmmv7RN5ZIwnO5RTn22vNo2Tt+iLsHudxy1yGV/QEARj3lty1FMh8FSi57KOPvNcZZ7JUg98S4OfbaOxEtEXvPuEsKnxQFQy63FgBl3yX9AYDn9bRf1RoFRC57JPdl/FyOVCan90ruj/KI5xdzzmVpAQEAcLTTFg+9hL5s3yP5Xxt/pE8cs3TuZcLZSj7L5HStRy5A1ibmveR+bfw9jTy/3HUAAG7xor9tKbW2S61z6MVv6R1Tj5PH1PunEtIyga+PmWsLreQ/xm+d+1zsEO2teKk3/7r/VLwyTn18re6fx8T+Mv6t6yG2w9S+kTj1ein316Yenzrhj7cetUw9v27p3xo/9doBgGPk3/wj+J2HF6hMVFNr31Ty1zqW422RnK+J0eu7xfwAgPXib/JRnvYzD3xd+B35ZOM2ax6f6Lcmue/1XRMbAHhc7jy8UKNvjQl1IujOw7kcnagrHADgscTf5qMoHgAA4IEdWTx42xIAADBE8QAAAAxRPAAAAEMUDwAAwBDFAwAAMETxAAAADFE8AAAAQxQPAADAEMUDAAAwRPEAAAAMUTwAAABDFA8AAMAQxQMAADBkdfHwzW9+87oGAAAc6ehcfHXx8N57713XAACAIx2di68uHj7++OPrGgAAcKSjc/HVxcOPfvSjyw9/+MPrFgAAcIQPPvjgbS5+pFev37iuL/bHP/7x8v3vf//yl7/85boHAADYyze+8Y3L7373u8u3vvWt655jbFI8pE8//fTy2WefXT7//PPLl19+ed0LAACs9e67717ef//9y4cffnj56KOPrnuPtWnxAAAAvFSXy18BbhlPR58ZRBQAAAAASUVORK5CYII=;" vertex="1" parent="1">
          <mxGeometry x="730" y="460" width="661.2" height="190" as="geometry" />
        </mxCell>
        <mxCell id="QgZdvH6-Uv-4IUFap3HK-19" value="" style="shape=image;verticalLabelPosition=bottom;labelBackgroundColor=default;verticalAlign=top;aspect=fixed;imageAspect=0;image=data:image/png,iVBORw0KGgoAAAANSUhEUgAAAxIAAAD5CAYAAACzrwMXAAAAAXNSR0IArs4c6QAAAARnQU1BAACxjwv8YQUAAAAJcEhZcwAADsMAAA7DAcdvqGQAABdeSURBVHhe7d3N6yxXmQDgvlGiIOoiYYgyWWXrwCwCISCI7hK3gYCrILMcGPxLZGCWg7hRCGThKluXMZLFQFwFssqIYVA0uokacue+1z56cqiqU6e+q/t54HCr6tT5qKru2+/b1f3rBw8fuQAAADR44vovAADAaBIJAACgmUQCAABoJpEAAACaSSQAAIBmEgkAAKCZRIK79k//8v3rEgAALSQS3K21k4joX6ICANwqP0jHYlLQ/H/v/ujxv0dVBvdz59t13EuPsba+hOfo8wYA9jM6kegLNHKCju3k1+Mo570roD6aNc5b33Gf4XyE/Jx0Ofr8AYB9+GgTdycC4y2C463GmaNMrPKS1BINAOA+NScSZbCRFzg6j9NuXefFuQIAhjR/tGlMcJHvW77jmet6pzPtUxtvStt8e1f7kLcZGqPPmH5zrXMKffuFsfvWjqNPV3+pr/xYumwxlzDU39Q5TDnuvu3JlD6Trrahb/8+Y8dp7RcAuH2rJhKl1Lavvks53lZth3SdgzF9T20X8rZDbcbul3TNqUvLuSv7XHIeYWp/U9otcdxL9hmmHn+XvjkmtXoA4H5tkkiUbfL6obqwV9swtf3edWFO2y5j+wst4605l7xu6hzG1oW++jX6DC11ffrmmEzpEwC4D83fkYjAoixDWoOdoWBlTtvcmLYt/S8xr1q72nnOtcxnTL9zjm+Jc5Ob0t/U87H03MOcPqcexxhd+7f2AQDcl1X/atOUQCtMbRfmtJ1rzNi3GpzVjn3LcxNjbfU4WGOcreYe8rHi/OcFAGDIIn+1aYqp7cKctmsqA7G87GHoPE05h3POe9c5SWWKpee/9LmqmdPn0nPta5NvnzNfAOA2+R0J4HGiUBYAgCG7JRJD70TX3qWe03ZNXcFYV9nK0udpTn9d56GrjLXl/Occd585fa4xHwCAVu5ILKgW4N1zkLflubn3c90inSvnCwBotXkikb/r3BW8DAU0c9qu6WjzapnPmLsAR7pmU/qbej6WnnuY0+fU4xgy1OfQXAAAVv9l6z5DQUq0G+pjatvavPJ+a/u0zisMtWmdU99YY/ZJ+sbsM9Rf9DV0LEvOpdZXWHIOU4+7b3uY2mcYahu62gxZuj8A4D7s9tGmvuBkTNAyp+2ahsZfem5zzlOYMp++NlvPJfaf0t/UOUzpr2ZOn1PmOiTazJkPAHCfRt+ROJOhd3PhDDyGAYCj82VrAACg2akSiXiXNpU+Q3WwN49hAOBWnO6jTWWQlX/0I6/zkRCOymMYALgFp/yOxJh3bAVhHJnHMABwdqf+snVXMCb44kw8hgGAs7rJv9oEAACsy19tAgAAmkkkAACAZhIJAACgmUQCAABoJpEAAACaSSQAAIBmEgkAAKCZRAIAAGgmkQAAAJpJJAAAgGYSCQAAoJlEAgAAaCaRAAAAmkkkAACAZhIJAACgmUQCAABoJpEAAACaSSQAAIBmEgkAAKCZRAIAAGgmkQAAAJpJJAAAgGYPHj5yXa56/fXXL2+++eblnXfeuXz44YfXrQAAwFzPPPPM5fnnn7+8/PLLl1dfffW69bhGJRIffPDB5Qc/+MHl5z//+XULAACwlm9/+9uXH/7wh5dnn332uuV4RiUSL7300uWXv/zldQ0AAFjbCy+88PjTQEdV/Y7ET37yE0kEAABs7O23334cix9VNZH42c9+dl0CAAC2dORYvJpIvPvuu9clAABgS0eOxavfkXjqqaeuSwAAwNZ+97vfXZeOxe9IAAAAzdyRAADgLn3xi1+8fPWrX718/vOfvzzxxDbvr3/66aeXTz755PLRRx9dPv744+vWYe5IAADAQXzlK1+5PP3005cnn3xysyQixFgxZowdczgziQQAAHflC1/4wuM7EQ8ePLhu2V6MHYlEzOWsJBIAANyVL3/5y9elfUUycZS5TCGRAADgrsRHi47iSHNpJZEAAOCufO5zn7su7e9Ic2klkQAAAJpJJAAAgGYSCQAAoJkfpAMA4K48++yz16XP+t73vndd+puf/vSn16XP1vVtD2Xd0HrywQcfXJe6+UE6AAA4qJQQRKCfSpISgFTK5CEM1d0qiQQAADwSicAUfe3yxCIlI7dEIgEAADTbPZF45a33P1OO5qjzuiVH/dzfWS15PqMv1weAe7HWx5Ju8W5E2PXL1ilAf+PF5x7/u7Ux4+89xzX81//88+N///1f//fxvyG25etbiSB1zy/07z3+VGVwXx7DEsd11nMDADVbfdk6qSUSZ/2y9e6JxJ4B+t7j7+UoicTegWp6Up4tWO46b2O3tdj7+gDAWvoSiSlqSUKtPkgkJhgK5Mu6fD0tx79JVz95fcjbdyn7SPt19R36xo/tsd5XP0YK9pOhoD9fL9vl8n1iuWzXtRzKuj5lm1xel/QFqml7etKU+5Tt8vXUpktXm7KvJeR9h7L/csx8PbXpMjTPss/Qta3F3PYAcFRbJBL5nYpbTSR2+Y5EBNgpyE7LedA9RuwfwflQkJ/qy/3y9a76kNr3Kfsv51+b35AUuOelVd5mSvuaof7HzL8WpKb6KFOePHnfXeMMjb2Etec/xtSxAYDx+pKE2J7KrdolkcgD7LScB9xlUN6qlgSE2hhD7cf0v6c8cO8K4udau/8wNXgOSwThc205/5S0AADjfPLJJ9el/R1pLq12+6tNLYF8175LBPJrJgNz+o7gPN7VT2UtaZylbTV/1rnVGX1KTgC4ZX/961+vS/s70lxaneZ3JPoC81pCMscSdx6mzi+C8VTOGIyfff5nkJKIpQP+6C/KGkkKABzBH//4x0vla8KbiDl89NFH17Xz2TWRGBOkl4H4Wncn5sgTjq3nNzdIrwX6R08C1gx20zvza5raf2rnrgEAtPv4448fJxN7iyTiz3/+83XtfA57RyIC8jxAz9UC86hP7VMplfv06aov25bzqc2vJoL3vESwn0vBf1fdEub2n9oO9THnHe/UNsrUQDq1L5e3MHf++VxTP/m2ZGr/AHDrHjx4cPn9739/+fWvf33505/+tOn3FGKsGDPG/sMf/vB4Lme1259/7QrAuS9nCHTPHIzPnbtEBIBb9umnn+7+8aZIIp54ov6+frwmH9EudyTKd/i5TxGkHvWJEfM6cyAtCQCAYRHAR9njjkBKIMYkEUe26R2JPIFwN4JE0LusJc9n9BVcHwDYT3o9Pppdf9kaAAAYdtRE4tz3UwAAgF1IJAAAgGYSCQAAoJlEAgAAaCaRAAAAmkkkAACAZhIJAACgmUQCAABoJpHg0I76AyxzxXHlBQDgbCQSHNYtJxHxi/F5kUwAAGfz4OEj1+VOEeTcmlfeev/yxovPXdf+pm9bLq9P+w/tM6QMHPPznALNJF8fCji3ulZpPmku5bhLzD8fo+x/rN88/drla7/98XVtvHzsUI5fzilfT226DB1H2WfoGx8AuC9D8cWe7vaORJkAlFKikEqX1MfQPl1S0JiXVnmbKe3nyo9hyoO7Nv89jim39vEBAJzdXSYStaA/JRFjtCQQS5kbpMY79V2lxZzg+AxB9pbHl5KWUmybMw8AgDX5jsQjLYlDrmwzto8IDiN4TGVr8XGfrnILysSoXD+aPa4/AMASJBIj1D4GNUV6tzklFVvKg+u83IIyMSrXjyRdd3cdAIAzuvtEonY3Iv8eRLJGYtFnjSQjD67zsoZbf8d96vGNSSJin1s/fwDAed11ItGXRMS2qBtKMoaSj5oUIKZSBpPpLkVX3RksMf/Uvlw+grnHlx9L6iffBgBwBnf551/hLKYmKwDA7TjqG46+IwEHlO5SSCIAgKOSSMABRQIhiQAAjkwiAQAANJNIAAAAzSQSAABAM4kEAADQTCIBAAA0k0gAAADNJBIAAEAziQQAANBMInFA6VeN1/o59LX7L/WN86u3v/+43KqzHt9WjwsA4NwkEge09q8ab/mryRGU+oXmc4nrJZkAAGokEqxGEnFekgkAoObBw0euy51uNRAsg6TyOIfqU4Cc9uk6R3P6T9I4Xca0r5nTf1kfuvaZMq9QfiToGy/86Lr0t7q+9aGPEuVtaobGD7X6tQ1dn/K85+td1y1pvX6pr6F9AID5hl6/93TXdyQiAEollwdIqa68gCnIijJUl0puTP9D5ravqfUfy6ku1ad/k7TPFCkxyEurvE1r+5Qk5GPnicMS85ujPP9TznPepq99bM+vOwBA7i4TiTFBbi3QqrWvqfVfM7d9zdr9rykP7KcG+Uv0cVRLXdtoe7bHBgCwHN+RWEEEV5GspLKGvP+1xthLBO7xrn8qe8jHL+ew9/y2eHwBANRIJFaS3q1NQd/S8v5T2VIeyK4xdgTrqewRrOfjp5LLt++VTKQimQAA9nC3iUQt+Mrr1wjU5vY/pk3sM3Xutfnlgeye1grit0gO5lyfsdbsf4v5AwDH5a82XZXHOVQfdbX1XNc5rPXfpbZPOU7ap297aaj/1rFD7Ne1vaYM4su7ASHtk+4IpH3GLI+R+s/lfeVa+s31XZ+aoWuT5H3n12HMctK1LRf1YWgfAGC+9Jp7NHebSDDd2KCzFohy7HM0Zm6uMQCsL15vj8h3JFhNBJhHfeDvLc7LkYPw2tyOPn8AYH3uSDBJBJG5WtDpcXQerhcAHEsZdx2FRAIAAA7sqImEjzYBAADNJBIAAEAziQQAANBMIgEAADSTSAAAAM0kEgAAQDOJBAAA0EwiAQAANJNITPSbp1+7LgEAwP2RSAAAAM0ePHzkutzpqaeeui7djrib8LXf/vjvdxViuVTecUj79N2JyPtI/Sd966mvvC7U6scof0o9v45R17c+9BPs5WMh7XuLjxEAgKMYis/2dLd3JFKwngfsSR7ApyC+a1taTusthsYPtfohKTHIS6u8zZT2AADctrtNJGrBf15f23eKlvG3NjaJiDpJBgDAffIdiUe6gva4C5CXNS2dNERwH3clUgEAgKVJJHpEcF+WM0l3C1JSAQAAS5JI9FjqLsTadzPmmpNkuOMBAHC/JBId0t2H/KNNZUIQ+4yp2+NORgrwUym/x5B/9KmsAwCAMe7yz7+yHMkIAMC6It46InckmMQdDQCA+yaRYJJIICQRAAD3SyIBAAA0k0gAAADNJBIAAEAziQQAANBMIgEAADSTSAAAAM0kEgAAQDOJBAAA0Gy3RCL9MjIAAHA+uyUS6ZeRJRMAAHA+PtoEAAA0k0gAAADNJBIAAEAziQQAANBs90QifeHal64BAOA8dk8kIoFIf8EJAAA4Bx9tAgAAmkkkAACAZhIJAACgmUQCAABotlsikf5Sky9ZAwDA+eyWSPhLTQAAcF4+2gQAADSTSAAAAM0kEgAAQDOJBAAA0EwiAQAANJNIAAAAzSQSAABAM4nEDtKP8UVhf1tfB9d9W64vAKzjwcNHrsud/GjceiLg6Du/Q3VnlwKt/Pj2Ot6+cf/7Pz4bDP7bf46f25i2ru82usadc21D2T6Ufdzy9QVge+m19WgkEjsaCjZuORBJT4b8+PY43r4xI1AsA8OubWP1tb3Va3z061tqvbZj97/V6wvA9tJr69Hs8tGmV956/7r0D33b8pJL60P79EkXI/7tuzCprm+fofra+pC8v7Tc0n4p+djl+EPreZuy5CLAKrcl5fZ8PfXVVXJDdTVTE4at/ebp165L7YbOz9B63qYsuSNf36M489wBIOz2HYla0B/1b7z43N9Ll9TH0D594gU8gp2ugCetp/qQ75O3zfdZQt7fGv2PscTx5W2mtK8Z6n/M/NM+e4rx88fVVlzfbcT4e1xfANjKLolELehPScQYrQlEUgsy8vq9A5JW8U51V9nK2udu62sz5WNN0SaVs9zhGOsWru/c65O3nyqOba3jA4AtHOKvNrUkDrmyzZJJRbyTmJdc7N9XdwRf++2PO8tYWx1fGmdpS85/aqAYwWkqc4LNUpkYlutjuL7zrk/edkp7ALgVp/jzr7WPQa0hgpWy5PLtawZjU+TBZV5aHPn4xlhi/ilAjGDxKMrEsFwfa4nzs6ezzx8AbsHuiUTtbkT+PYhki8RiqeBkjyAnDy7zsoa5x1cLBPcKEsckETG3vea3lVu9vmOMub5z7kaM6R8Ajmy3P//alSDk8voy2SjXW8WLd+24ul7gU5uyrquvtE8KpPJ9uvoOZT/5fl1jrGXO8bUuh1gPfdvG9FMu59L2Ut4m1xcclklFGqfso2zfl4z0jT9W3GWakiCOOT/5seXzbF0OsR76to3pp1zOpe2lvE2u5fqEso+lrm9f/wBQKl/7jsLvSHC3aoHeGHP6WGJ8+p3h+noMADBGvF4ckUSCuzY1kEtP6DWDTOY76vWd2z8A9yW9bhyNRIK7NzXYnGrr8e6d6wvA2UkkAACAZkdNJE7x518BAIBjkUgAAADNJBIAAEAziQQAANBMIgEAADSTSAAAAM0kEgAAQDO/I9Eh/1u9axz/K2+9f126XN548bnr0nr6fiDrV29///G/33jhR4//HSu1C61tj2CP+ceYRztXU6//0c19/vY9XwBgL35H4kQiiFgzkIjkYYsEIqwRFEXgeebgc8z882SDcxnz/B36DznaHvU/bAA4EonEDfPOKkwjmQCAut0+2lS+SJfjDNWnADnt0zXHOf0naZwuY9rXxEec+u5M5B9/CuV+ZX0o9xmaf035jnzXO/hTP66T2g19tKY2/lB9Oa9yPenaXvab9LUPXXWh7KucU66vjz619nP7nyM97tJzpO+5lSv3GaovH9fletK1vew3Gds+l/oa2gcAltD3+rW3Xe9IxAtwKrn8BTrVlScwvchHGapLJTem/yFz29ekJCH/CFSeOKQEJK9P/ybpHEyRB8gpAC0D07miv9R/2Xdt/Lxtvs8S8v6G+h+afyjnmEv753VdffSptS/HTvtsKT3+opTPjdrzJ2+b77OEvL9a/7G9nDsA8A+7JBIpUBiS13ftW2tfU+u/Zm77mjwxKJOELeTB5xqBaK3Ptcefa2hOKZAfMvf45rZfW+05sfbzZwsx77POHQCWcJPfkYgX90hWUllD3v9aY+wpguG8rKkrEB4aP/bvq9vKkcYv53CE85PrCraHnj9bPH8BgPlu9svW6d3CFJQsLe8/lS3Fx5tSWeOORQSjZdlSbfx8+9bBcoyXj7+HfPyueeTbj5BMlGrPn3y7ZAIAjmm3RKIWHOT1awQSc/sf0yb2mTr38jsRpUgeUlnD3sHnUuOvfRx9/efbu/ap1ddMadNqzuO3Zql+15rfGGueHwA4g1P/1aakaz3XdQy1/rvU9inHSfuU27sSg5AnBeU+Q3WhK6GI8buOfYyuQDW9690XxJbviveJ9rV9W8bv6ivtE3XleF19h7KffL+hulBrW5tD2b6mbB9SH3P7TvoevzVjHndDz5+yrquvfG7leF19h7KffL++Mbq2J/kcAGBNfa9te/PL1icUiUSZOHRtqwVCUHPPj6Exx+45BsAWjppI3Ox3JPjHu7XQKh439xwk14793s8PAAR3JE5q6KNPJQEPjOf5AsDRxGvTEUkkAADgwI6aSPhoEwAA0EwiAQAANJNIAAAAzSQSAABAM4kEAADQTCIBAAA0k0gAAADNJBIAAEAziQQAANBMIgEAADSTSAAAAM0kEgAAQDOJBAAA0KyaSDz55JPXJQAAYEtHjsWricQ3v/nN6xIAALClI8fi1UTitddeuy4BAABbOnIsXk0kvvvd716+853vXNcAAIAtvPTSS49j8aN68PCR63Kv99577/Ktb33r8pe//OW6BQAAWMuXvvSlyy9+8YvL17/+9euW4xmVSCSvv/765c0337y88847lw8//PC6FQAAmOuZZ565PP/885eXX3758uqrr163HldTIgEAABD8jgQAANBMIgEAADSTSAAAAM0kEgAAQDOJBAAA0EwiAQAANJNIAAAAzSQSAABAM4kEAADQTCIBAAA0k0gAAADNJBIAAEAziQQAANBMIgEAADS6XP4f/w7sx3f/qm0AAAAASUVORK5CYII=;" vertex="1" parent="1">
          <mxGeometry x="17" y="780" width="599.76" height="190" as="geometry" />
        </mxCell>
        <mxCell id="QgZdvH6-Uv-4IUFap3HK-20" value="" style="shape=image;verticalLabelPosition=bottom;labelBackgroundColor=default;verticalAlign=top;aspect=fixed;imageAspect=0;image=data:image/png,iVBORw0KGgoAAAANSUhEUgAAAvoAAAEHCAYAAADf++KPAAAAAXNSR0IArs4c6QAAAARnQU1BAACxjwv8YQUAAAAJcEhZcwAADsMAAA7DAcdvqGQAABknSURBVHhe7d27yyTXmQfgnk0djr3IZh0ptWADgVBk7ExyKlAqjMMF47/EGDY0xokDgQJHSh3KMgoW5MigyAsWi/UPOJmdd6bf8ZnjunXd+/TzwOGr27lUVfdXv66p6e/Js+cuAABAU/7t+hMAAGiIoA8AAA0S9AEAoEGCPgAANEjQ5+H8+1s/vU4BALRL0OehbB3yo30fJACAM/D1miySofb/vvzNi59nVYfvpePt2u+1+9hC14eQvnF2bRvOfq4BgJcGg37fhb7kor+f8nyc5bjnmM78OtjiuPXt99mPR3ksUtdYu7Yrnfl8AwAveXSHhxDBdI9wulc/c00ZX/3BqCxp7IMAAHC8SUG/vtiXBc7O63SeruPmWALA/Zj06M6Ui3u5bX1HsNR1JzC3GetvTt1yeVf9UNYZ6qPPlHZLt44p9G0Xpm47th99utrLtsp96bLHWMJQe3PHMGe/+5anOW2mrrqhb/shZVtz92FOvwDAflYP+rWs27e+S1/wmGJJ3SFdx2BK23PrhbLuUJ2p26WuMXW55djVba45jjC3vTn11tjvNdsMc/e/T9leWa9veWnKNgDA8TYL+nWdoXBwlrphbv2j14UldbtMbS/c0t+WYynXzR3D1HWhb/0WbYZb1g3pqzelvbl9AgD7mvSMflzY6zLk1jAyFBaW1C1NqXtL+2uMa6ze2HEu3TKeKe0u2b81jk1pTntzj8faYw9L2py7HwAAq3/rzpwgFObWC0vqLjWl71YD2Ni+73lsoq+9Xgdb9LPX2AGAxzH7W3fmmFsvLKm7pQiqfeUIQ8dpzjFccty7jkmWOdYe/9rHasySNvceKwBw/3yPPvCKDw0A0I5dg/7Qndyxu7xL6m4pgtGUspe1j9OS9rqOQ1eZas/xL9nvPkva3GI8S91y7gCA/bmjv9BYADsqhJ3Bnsfm0Y/1FrqOp2MMAPdjl6Bf3vm7NTwsqbuls43rlvFMuRN7pnM2p725x2PtsYclbc7dj7WU7Q+NEwA4n03+Mm6foaAQ9YbamFt3bFxlu2Pb3DquMFTn1jH19TVlm9TXZ5+h9qKtoX1ZcyxjbYU1xzB3v/uWh7lthqG6oavOkLK9PfoDAPa366M7feFgSmhYUndLQ/2vPbYlxynMGU9fnb3HEtvPaW/uGOa0N2ZJm3PGukS0uWS8AMDxBu/o35Ohu6FwD7yGAYA1+c+4AADQoNMH/bjLmaXP0Do4mtcwAHCEu3h0pw5B5aMN5TqPPHBWXsMAwN7u5hn9KXc8hSTOzGsYANjT3f1n3K6wJBxxT7yGAYA9NPOtOwAAwD/51h0AAGiQoA8AAA0S9AEAoEGCPgAANEjQBwCABgn6AADQIEEfAAAaJOgDAECDBH0AAGiQoA8AAA0S9AEAoEGCPgAANEjQBwCABgn6AADQIEEfAAAaJOgDAECDBH0AAGiQoA8AAA0S9AEAoEGCPgAANEjQBwCABgn6AADQoCfPnrtOd/r4448vn3766eWLL764fP3119elAADAUm+88cbl7bffvrz//vuXDz/88Lp0Hb1B/69//evlF7/4xeUPf/jDdQkAALCVH/3oR5df/vKXl+9///vXJcv0Bv333nvv8qc//ek6BwAAbO2dd9558TTNGjqf0f/d734n5AMAwM4+//zzF1l8DZ1B//e///11CgAA2NNaWbwz6H/55ZfXKQAAYE9rZfHOZ/SfPn16nQIAAPb2zTffXKfm8z36AADQIEEfAAAaJOgDAECDBH0AAGiQoA8AAA0S9AEAoEGCPgAANEjQBwCABgn6AADQIEEfAAAaJOgDAECDBH0AAGiQoA8AAA0S9AEAoEFPnj13nX7l6dOn16ltfPDZV9eplz55983r1Dnk+M42rpZ88803m7/OHsmaxzPaCs4PABwnr8dL7H5HvwzRWfYU/dcfNB7Bf//Pf7wopXp+L0eH/DXeOEeIcZelFMdzjf2KNqItIR8A7t8hj+4cfad8rP8jPoA8igySR1kjDB+hDOBZ6n3pWgYAPK7dH92Ju+l9IbpeV87ndHk3vqudcn0o63ep28jtutoOff3H8pjvWz9FfYf9v/7zf69TL9f1zQ/dmS+3iem6Xtd0qNf1qeuUynWpL+jn8gyq9TZ1vXI+63TpqlO3tYay7VC3X/dZzmedLkPjrNsMXctusbQ+ALCOoXww1W539CMAZwjO6TIUTxHbR3geCuG5vt6unO9aH7J+n7r9evxj4xuSwbostyrrzKk/Zqj9KeMfC5G5PsqcF3fZdlc/Q32vYevxTzG3bwCgPbsF/TIA53QZiOvQfKuxkB7G+hiqP6X9I5XBuitkL7V1+2FuuA1rhOSl9hx/fqgAAOiz6zP6twTtrm3XCNpbhvUlbUd4jrviWbaS/axtr/Gzzj/l1aJNHx4AoC2H/GfcqfqC89gHhiXWuHM/d3wRlrPcY1i+9/Hfgwz5awfyaC/KFh8iAIBj7B70p4ToOihvdXd/ifIDwd7jWxqix4L42UP6lmE072xvaW77Wc9ddwBgilPd0Y/AXAbo0lhwjvVZP0ut3qZP1/q6bj2esfGNiXBdlgjjpQznXevWsLT9rDvUxpI7xlk3ytygm/Xr6T0sHX851mynXJbmtg8AtGfXr9fsCsg8lnsIovcclpeO3QcFADiHuCYvtdsd/foOOY8pQuQaL9wtxLjuOegK6QBAafM7+mXAdzefJJSua83jGW0F5wcAjpPX4yV2/8u4AADAsDWC/qm/XhMAAJhH0AcAgAYJ+gAA0CBBHwAAGiToAwBAgwR9AABokKAPAAANEvQBAKBBgj6ns8YfiDij2K+yAABsSdDnVFoO+fEXp8si7AMAW3ry7Lnr9CsRQlrzwWdfXT55983r3Et9y0rl+tx+aJshdbArj3MGwVTODwXCvc5VjifHUve7xvjLPur2p/rbtz+6fPfvv73OTVf2Her+6zGV81mny9B+1G2Gvv4BgMcylC+meqg7+nVAr2WQz9Il2xjapkuGurLcqqwzp/5S5T7MefGNjf+IfSptvX8AAHt6mKA/Fsoz5E9xS8Bfy9IQGXe6u8otloTXewjBe+5ffqioxbIl4wAASA/7jP4twb5U15naRoS3CHdZ9haPs3SVFtQfXOr5szni/AMAj8d/xu0x9pjPHHm3NkP/nsrwW5YW1B9c6vkzyfPurj0AsLWHDPpjd/PL5/DTFsG/zxYfAsrwW5YttH7Heu7+TQn5sU3rxw8A2MfDBf2+kB/LYt3Qh4ChDwdjMsBlqcNe3uXvWncP1hh/1q+nz2Dp/pX7ku2UywAA1vYwX68J92LuhwkAoB1r3BD0jD6cRN7lF/IBgDUI+nASEfCFfABgLYI+AAA0SNAHAIAGCfoAANAgQR8AABok6AMAQIMEfQAAaJCgDwAADRL0AQCgQYL+SeRfRV3jzx132br9Wl8/f/78py9Kq+51//Z6XQAA+xH0T2Lrv4q6519djdDoL7zelzhfwj4AtEXQZ1VC/v0S9gGgLU+ePXedfqXVoFaHmHo/h9ZngM1tuo7RkvZT9tNlSv0xS9qv14eubeaMK9SPvPzgnd9cp16u65sfelSmrDNmqP8wtn5rQ+enPu7lfNd5S7eev2xraBsAYLmh6/dUD3dHPwJKllIZYHJdfYAzBEUZWpelNKX9IUvrjxlrP6ZzXa7Pnym3mSODe1luVda5tX6G+LLvMtivMb4l6uM/5ziXdfrqx/LyvAMA9+thgv6UEDoWhMbqjxlrf8zS+mO2bn9LZfCeG8LXaOOs1jq3UffeXhsA8Kg8o7+SCD/xYSLLFsr2t+rjKBGs4655liOU/ddjOHp8e7y+AIC2CPoryrudGcrWVrafZU9l0Nyi7wjTWY4I02X/WUrl8qPCfhZhHwAY81BBfywcleu3CFJL259SJ7aZO/ax8ZVB80hbhew9wvuS8zPVlu3vMX4AYB2+dacwtD7Wjc2Xuo7hWPtdxrap+8lt+pbXhtq/te8Q23UtH1OH7Ppuesht8o56bjNleopsv1S2Vbql3VLf+RkzdG5S2XZ5HqZMp65lpVgfhrYBAJbLa+4SDxX0mW9qKBwLipz7GE0Zm3MMANuL6+1SntFnVREA13hhtiiOy5lD8tjYzj5+AOB17ugzWYS80lgo9Dq6H84XAJxLnbvmEPQBAOBk1gj6Ht0BAIAGCfoAANAgQR8AABok6AMAQIMEfQAAaJCgDwAADRL0AQCgQYI+AAA0SNC/wd++/dF1CgAAzk3QBwCABj159tx1+pWnT59ep9oRd+O/+/ffvrorH9O1+o59btN3J79sI9tPffPZVrkujK2fov5TyeV5jHV980N/Yrl+LeS2Lb5GAADOYiifTfVQd/QzTJeBOpUBO0N217KczvlbDPUfxtYPyeBelluVdebUBwDgPB4q6I+F83L92LZz3NL/3qaG/FjnQwAAwPk97DP6XaE67qKXZUtrh/oI33FXPwsAAI/Nf8YtRPiuyz3Ju+0Z+gEAeFyCfmGtu/hb/2vAUks+BPgXAwCA+yDoX+Xd+/LRnTqwxzZT1h3xLwEZwLPUz9GXj/bU6wAAaM/DfL0m6/FhAQBgW5G3lnJHn8n8iwAAwP0Q9JksAr6QDwBwHwR9AABokKAPAAANEvQBAKBBgj4AADRI0AcAgAYJ+gAA0CBBHwAAGiToAwBAg3YN+vmXVQEAgG3tGvTzL6sK+wAAsC2P7gAAQIMEfQAAaJCgDwAADRL0AQCgQYcE/fwPuf5TLgAAbOOQoB8BP7+BBwAAWJ9HdwAAoEGCPgAANEjQBwCABgn6AADQoF2Dfn7Tjv+ECwAA29o16PumHQAA2IdHdwAAoEGCPgAANEjQBwCABgn6AADQIEEfAAAaJOgDAECDBH0AAGiQoL+T/GNhUTje3ufBed+X473M2d4fzifAPE+ePXedfsUftdpOXLD6ju/QunuXF+py/47a375+f/3z18PEz341fWxT6jq/++jqd8m53cMHn3314ucn77754meIZeX8XrZ4f5SinTnvj6NeTwBHid97Swn6Oxu6WLV8IcsXa7l/R+xvX59d4aMvkEwxN8zcq7Of39qSc7uFswT9rd8fUSf01Rs7f0e8pgCOEr/zltrt0Z28kJX6lpWllPND2/TJgxU/+w5cruvbZmj92PyQsr2cvqX+Wsq+6/6H5ss6dSnFBbpelurl5Xy21VVKQ+vGnCn0Dfnbtz+6Tt1u6PgMzZd16lI68/ldw9DvnaH5sk5dShHq62WpXl7OZ1tdpTS0bswa748zfLha8v4BuEe7PqM/dnGJ9XGxy9Il2xjapk+EgwgjXYEk53N9KLcp65bbrKFsb4v2p1hj/8o6c+qPGWp/yvhzmyNF/+Xrai/O7zL176Zbf/eEss6c+mOG2p8y/q3fH1NCfvQ/9P4YWw/A63YL+l0XllJeiKaYul1t7CJWrt/ygreFuFPVVfay9bHb+9zMfSwhy738C8FULZzfI89P+Ttr7u+vIVu3X2vxNQ7QosO+deeWYF+q68y9qHWFibhTVJZSbN+37gy++/ffdpap9tq/7Gdta44/QswcEXyyzG2jS/3BrZ6fwvlddn7i90z8zsqylexnbWuOf83X9h7q90s9D9Cy03695pYX0z4RJupSKpdvGZbmKC9eZbnFmfdvijXGnyEmwuBZ1B/c6vmp1jg+Rzp6/BGWsxzx+2mpNcZ/xvfHmPr9Us8DtOyQoB8XmbjY9MmLULnNHhfWtcLDESGkvHiVZQtL928sqB1x/MKUEBNjO2p8e2n1/E6xxvld+rtqLIjv8buwi/cHwP3ZPejHRaor5OfFrW996Fu+hggnIS9U9QWrXp7bpww3XetCriuncz6VbdTrtlb2G+XW/VtqaftZd6iN7KNL+ThCTGeZqqwTpS8M9Y1ta+Wx6RpDHpuudWtY2n7WHWoj++gy9fz0yd9Nfb+jpvz+WmJp+1l3qI2x45fK43iLsk5f/b5zm8bWA/A636PPQ1kjKCxpQ1DZ1tHn996d/f3xyOcGeDzxO28pQZ+HMzcs5BtuqxDDOo46v6046/tj7rgA7lX+Xl1C0Och7R0ahJR9Od7LnO394XwCjyh+9y0l6AMAwMmsEfRP+/WaAADAfII+AAA0SNAHAIAGCfoAANAgQR8AABok6AMAQIMEfQAAaJCgv5E1vvv0nu29/49+vG91tvPj/AHA+pr5g1kZFMqxx7Ij9uWIfj/47KsXPz95980XP0MsK+f30rf/v/7562HuZ7+ad4yina66R53vKVo/P1Pqjp2fM58/ANhbXBeXckd/ZY8eVoZCZIS/stThcIqhOtHvGm+Klm11fqbUHTs/zh8ArGvXO/r1Rbzspw4g5fxYOAi5fV2vazrU6/rUdUrlulT3U8q7umno7m45X9crldvEdF2vazrU6/rUdUrlujS0/7UMl1Pl9kP1bum/NrR/S49fbl/X65oO9bo+dZ1SuS5teX5KfXXH+p+yPsw9xwBwL/Kat8Rud/TzAl6WW5V15tQfM9T+lPEPhZQMbmW5VVlnTv0xQ+1PGf/Q/q9hSuiM/ue8MZyffYydn7nnDwD4V3fz6E4ZULYIK1u3v1QZ3LpC3FJbt19bcrf4jJyfl3WybHVu4715xvcnAJzRbkE/Ls5xpy7LVrKftS0df4SzuOuaZSvZz9rWHH8EwbNxfv5p7vmJcJ/ljOcYAB7Nrnf0827cVmF8a0vHH2Esy5ZhcitrjD8D4FZ3fJdYY/+OtMb4z3x+AIDbnPLRnaUfAsaC+Nk/ZCwNmWNB76gQOyVExrnZ8vys0b7zc9z75+j+AeCe7PqfccsSYbyU4bxr3RqWtp91h9rIPrpEeCtLhL1Shr+udWtY2n7WHWpjaP/LRzliOsstyjp99fvOzZix/Vt6/MYsbT/rDrWx5fkp60Tp+7Awdn7mnj8A4F818wezzuLRg8oa+7+kjSl1H/kcnf38OH8A8FJc75YS9Dfw6EFk7v7nC3rusRvrd2n7rTjz+XH+AOClvO4tIehvZCy0tG7v/X/0432rs50f5w8AXhfXxqUEfQAAOJk1gv7d/MEsAABgOkEfAAAaJOgDAECDBH0AAGiQoA8AAA0S9AEAoEGCPgAANMj36F+V31W6xf5/8NlX16nL5ZN337xObafvDxD9+fOfvvj5g3d+8+LnVFkv3Fr3DI4Yf/R5tmM19/yf3dL3b9/7BQCO4nv0VxQX+S0v9BHu9wj4YYvQEsHwnsPhlPGXHwa4L1Pev0O/MKPuGr9QAeBMBP3GuDMJ8wj7ALRm10d36oto3c/Q+gywuU3XGJe0n7KfLlPqj4lHePru7JeP94R6u3p9qLcZGv+Y+o521x3wuY+jZL2hR0fG+h9aX4+rnk9dy+t2U1/90LUu1G3VYyr1tdFnrP7S9pfI112+R/reW6V6m6H19eu6nk9dy+t209T6pWxraBsAWEPf9esWu9/RjwtkllJ5Ac119Q7mRTjK0LospSntD1laf0yG+PIRnzLY5weEcn3+THkM5igDbAbEOjguFe1l+3XbY/2Xdctt1lC2N9T+0PhDPcZSbl+u62qjz1j9uu/cZk/5+otSvzfG3j9l3XKbNZTtjbUfy+uxA8C92i3o54V8SLm+a9ux+mPG2h+ztP6YMrjXIX4PZTjcIiiOtbl1/0sNjSmD9pCl+7e0/tbG3hNbv3/2EOO+17ED8HiaeUY/Lr7xYSLLFsr2t+rjSBFWy7KlrqA61H9s37duL2fqvx7DGY5PqSsMD71/9nj/AsCjaeo/4+bdtgwNayvbz7KneHwnyxZ3/CMs1mVPY/2Xy/cOs9Ff2f8Ryv67xlEuP0PYr429f8rlwj4ALLdr0B+7eJfrt7jQL21/Sp3YZu7Y62fyaxHus2zh6HC4Vv9b70df++Xyrm3G1o+ZU+dWS16/Y9Zqd6vxTbHl8QGAtd3dt+6krvlS1z6Mtd9lbJu6n9ymXt4V3EMZ2utthtaFrsAf/Xft+xRdQTLvGveFzPqucp+oP7btLf13tZXbxLq6v662Q91Oud3QujBWd2wMdf0xdf2QbSxtO/W9fsdMed0NvX/qdV1tlWOr++tqO9TtlNv19dG1PJVjAIAt9V3bbuEv496JCPp1sO9aNhZUYMwjv4am7Lv3GAB7WCPoN/WMPv+82wm3itfNI4fYsX1/9OMDwP1xR/+ODD3aUxNIYDrvFwDOJq5NSwn6AABwMmsEfY/uAABAgwR9AABokKAPAAANEvQBAKBBgj4AADRI0AcAgAYJ+gAA0CBBHwAAGiToAwBAgwR9AABokKAPAAANEvQBAKBBgj4AADSoM+h/5zvfuU4BAAB7WiuLdwb9t9566zoFAADsaa0s3hn0P/roo+sUAACwp7WyeGfQ/8lPfnL58Y9/fJ0DAAD28N57773I4mt48uy56/Rr/vKXv1x++MMfXv7xj39clwAAAFv51re+dfnjH/94+d73vnddskxv0E8ff/zx5dNPP7188cUXl6+//vq6FAAAWOqNN964vP3225f333//8uGHH16XrmM06AMAAPfH9+gDAECDBH0AAGiQoA8AAA0S9AEAoEGCPgAANEjQBwCABgn6AADQIEEfAAAaJOgDAEBzLpf/Bybp9zb9MdKkAAAAAElFTkSuQmCC;" vertex="1" parent="1">
          <mxGeometry x="670" y="780" width="579.47" height="200" as="geometry" />
        </mxCell>
        <mxCell id="QgZdvH6-Uv-4IUFap3HK-21" value="console" style="text;html=1;align=center;verticalAlign=middle;whiteSpace=wrap;rounded=0;" vertex="1" parent="1">
          <mxGeometry x="460" y="115" width="60" height="30" as="geometry" />
        </mxCell>
        <mxCell id="QgZdvH6-Uv-4IUFap3HK-22" value="" style="endArrow=none;html=1;rounded=0;" edge="1" parent="1">
          <mxGeometry width="50" height="50" relative="1" as="geometry">
            <mxPoint x="460" y="140" as="sourcePoint" />
            <mxPoint x="520" y="140" as="targetPoint" />
          </mxGeometry>
        </mxCell>
        <mxCell id="QgZdvH6-Uv-4IUFap3HK-23" value="1. hola&lt;br&gt;2. el resultado es 15" style="text;html=1;align=center;verticalAlign=middle;whiteSpace=wrap;rounded=0;fontSize=10;" vertex="1" parent="1">
          <mxGeometry x="445" y="140" width="105" height="30" as="geometry" />
        </mxCell>
        <mxCell id="QgZdvH6-Uv-4IUFap3HK-28" value="1. num es 3&lt;br&gt;2. x es 18" style="text;html=1;align=center;verticalAlign=middle;whiteSpace=wrap;rounded=0;fontSize=10;" vertex="1" parent="1">
          <mxGeometry x="827" y="155" width="105" height="30" as="geometry" />
        </mxCell>
        <mxCell id="QgZdvH6-Uv-4IUFap3HK-32" value="" style="group" vertex="1" connectable="0" parent="1">
          <mxGeometry x="842" y="127.5" width="60" height="30" as="geometry" />
        </mxCell>
        <mxCell id="QgZdvH6-Uv-4IUFap3HK-26" value="console" style="text;html=1;align=center;verticalAlign=middle;whiteSpace=wrap;rounded=0;" vertex="1" parent="QgZdvH6-Uv-4IUFap3HK-32">
          <mxGeometry width="60" height="30" as="geometry" />
        </mxCell>
        <mxCell id="QgZdvH6-Uv-4IUFap3HK-27" value="" style="endArrow=none;html=1;rounded=0;" edge="1" parent="QgZdvH6-Uv-4IUFap3HK-32">
          <mxGeometry width="50" height="50" relative="1" as="geometry">
            <mxPoint y="25" as="sourcePoint" />
            <mxPoint x="60" y="25" as="targetPoint" />
          </mxGeometry>
        </mxCell>
        <mxCell id="QgZdvH6-Uv-4IUFap3HK-33" value="" style="group" vertex="1" connectable="0" parent="1">
          <mxGeometry x="90" y="320" width="60" height="30" as="geometry" />
        </mxCell>
        <mxCell id="QgZdvH6-Uv-4IUFap3HK-34" value="console" style="text;html=1;align=center;verticalAlign=middle;whiteSpace=wrap;rounded=0;" vertex="1" parent="QgZdvH6-Uv-4IUFap3HK-33">
          <mxGeometry width="60" height="30" as="geometry" />
        </mxCell>
        <mxCell id="QgZdvH6-Uv-4IUFap3HK-35" value="" style="endArrow=none;html=1;rounded=0;" edge="1" parent="QgZdvH6-Uv-4IUFap3HK-33">
          <mxGeometry width="50" height="50" relative="1" as="geometry">
            <mxPoint y="25" as="sourcePoint" />
            <mxPoint x="60" y="25" as="targetPoint" />
          </mxGeometry>
        </mxCell>
        <mxCell id="QgZdvH6-Uv-4IUFap3HK-36" value="1. 15&lt;br&gt;2. 10&lt;br&gt;3. 10&lt;br&gt;4. 15" style="text;html=1;align=center;verticalAlign=middle;whiteSpace=wrap;rounded=0;" vertex="1" parent="1">
          <mxGeometry x="90" y="360" width="60" height="30" as="geometry" />
        </mxCell>
        <mxCell id="QgZdvH6-Uv-4IUFap3HK-37" value="" style="group" vertex="1" connectable="0" parent="1">
          <mxGeometry x="420" y="340" width="60" height="30" as="geometry" />
        </mxCell>
        <mxCell id="QgZdvH6-Uv-4IUFap3HK-38" value="console" style="text;html=1;align=center;verticalAlign=middle;whiteSpace=wrap;rounded=0;" vertex="1" parent="QgZdvH6-Uv-4IUFap3HK-37">
          <mxGeometry width="60" height="30" as="geometry" />
        </mxCell>
        <mxCell id="QgZdvH6-Uv-4IUFap3HK-39" value="" style="endArrow=none;html=1;rounded=0;" edge="1" parent="QgZdvH6-Uv-4IUFap3HK-37">
          <mxGeometry width="50" height="50" relative="1" as="geometry">
            <mxPoint y="25" as="sourcePoint" />
            <mxPoint x="60" y="25" as="targetPoint" />
          </mxGeometry>
        </mxCell>
        <mxCell id="QgZdvH6-Uv-4IUFap3HK-40" value="1. 15&lt;br&gt;2. 10&lt;br&gt;3. 20&lt;br&gt;4. 15" style="text;html=1;align=center;verticalAlign=middle;whiteSpace=wrap;rounded=0;" vertex="1" parent="1">
          <mxGeometry x="414" y="390" width="60" height="30" as="geometry" />
        </mxCell>
        <mxCell id="QgZdvH6-Uv-4IUFap3HK-41" value="1. num es 3&#xa;2. num es 5&#xa;3. el resultado es 16" style="text;whiteSpace=wrap;" vertex="1" parent="1">
          <mxGeometry x="742" y="390" width="130" height="70" as="geometry" />
        </mxCell>
        <mxCell id="QgZdvH6-Uv-4IUFap3HK-42" value="" style="group" vertex="1" connectable="0" parent="1">
          <mxGeometry x="740" y="360" width="60" height="30" as="geometry" />
        </mxCell>
        <mxCell id="QgZdvH6-Uv-4IUFap3HK-43" value="console" style="text;html=1;align=center;verticalAlign=middle;whiteSpace=wrap;rounded=0;" vertex="1" parent="QgZdvH6-Uv-4IUFap3HK-42">
          <mxGeometry width="60" height="30" as="geometry" />
        </mxCell>
        <mxCell id="QgZdvH6-Uv-4IUFap3HK-44" value="" style="endArrow=none;html=1;rounded=0;" edge="1" parent="QgZdvH6-Uv-4IUFap3HK-42">
          <mxGeometry width="50" height="50" relative="1" as="geometry">
            <mxPoint y="25" as="sourcePoint" />
            <mxPoint x="60" y="25" as="targetPoint" />
          </mxGeometry>
        </mxCell>
        <mxCell id="QgZdvH6-Uv-4IUFap3HK-45" value="" style="group" vertex="1" connectable="0" parent="1">
          <mxGeometry x="80" y="650" width="60" height="30" as="geometry" />
        </mxCell>
        <mxCell id="QgZdvH6-Uv-4IUFap3HK-46" value="console" style="text;html=1;align=center;verticalAlign=middle;whiteSpace=wrap;rounded=0;" vertex="1" parent="QgZdvH6-Uv-4IUFap3HK-45">
          <mxGeometry width="60" height="30" as="geometry" />
        </mxCell>
        <mxCell id="QgZdvH6-Uv-4IUFap3HK-47" value="" style="endArrow=none;html=1;rounded=0;" edge="1" parent="QgZdvH6-Uv-4IUFap3HK-45">
          <mxGeometry width="50" height="50" relative="1" as="geometry">
            <mxPoint y="25" as="sourcePoint" />
            <mxPoint x="60" y="25" as="targetPoint" />
          </mxGeometry>
        </mxCell>
        <mxCell id="QgZdvH6-Uv-4IUFap3HK-48" value="1. 5&#xa;2. 8" style="text;whiteSpace=wrap;" vertex="1" parent="1">
          <mxGeometry x="90" y="680" width="40" height="50" as="geometry" />
        </mxCell>
        <mxCell id="QgZdvH6-Uv-4IUFap3HK-49" value="" style="group" vertex="1" connectable="0" parent="1">
          <mxGeometry x="777" y="660" width="60" height="30" as="geometry" />
        </mxCell>
        <mxCell id="QgZdvH6-Uv-4IUFap3HK-50" value="console" style="text;html=1;align=center;verticalAlign=middle;whiteSpace=wrap;rounded=0;" vertex="1" parent="QgZdvH6-Uv-4IUFap3HK-49">
          <mxGeometry width="60" height="30" as="geometry" />
        </mxCell>
        <mxCell id="QgZdvH6-Uv-4IUFap3HK-51" value="" style="endArrow=none;html=1;rounded=0;" edge="1" parent="QgZdvH6-Uv-4IUFap3HK-49">
          <mxGeometry width="50" height="50" relative="1" as="geometry">
            <mxPoint y="25" as="sourcePoint" />
            <mxPoint x="60" y="25" as="targetPoint" />
          </mxGeometry>
        </mxCell>
        <mxCell id="QgZdvH6-Uv-4IUFap3HK-53" value="1.1 - Â Â Â Â 2&#xa;1.2 - Â Â Â Â 5&#xa;2.1 -Â  Â Â Â 3&#xa;2.2 - Â Â Â Â 8" style="text;whiteSpace=wrap;" vertex="1" parent="1">
          <mxGeometry x="770" y="690" width="80" height="80" as="geometry" />
        </mxCell>
        <mxCell id="QgZdvH6-Uv-4IUFap3HK-54" value="1. sum es 5&#xa;2. sum es 8&#xa;3. el resultado es 13" style="text;whiteSpace=wrap;" vertex="1" parent="1">
          <mxGeometry x="90" y="1030" width="130" height="70" as="geometry" />
        </mxCell>
        <mxCell id="QgZdvH6-Uv-4IUFap3HK-56" value="" style="group" vertex="1" connectable="0" parent="1">
          <mxGeometry x="90" y="1000" width="60" height="30" as="geometry" />
        </mxCell>
        <mxCell id="QgZdvH6-Uv-4IUFap3HK-57" value="console" style="text;html=1;align=center;verticalAlign=middle;whiteSpace=wrap;rounded=0;" vertex="1" parent="QgZdvH6-Uv-4IUFap3HK-56">
          <mxGeometry width="60" height="30" as="geometry" />
        </mxCell>
        <mxCell id="QgZdvH6-Uv-4IUFap3HK-58" value="" style="endArrow=none;html=1;rounded=0;" edge="1" parent="QgZdvH6-Uv-4IUFap3HK-56">
          <mxGeometry width="50" height="50" relative="1" as="geometry">
            <mxPoint y="25" as="sourcePoint" />
            <mxPoint x="60" y="25" as="targetPoint" />
          </mxGeometry>
        </mxCell>
        <mxCell id="QgZdvH6-Uv-4IUFap3HK-59" value="" style="group" vertex="1" connectable="0" parent="1">
          <mxGeometry x="750" y="990" width="60" height="30" as="geometry" />
        </mxCell>
        <mxCell id="QgZdvH6-Uv-4IUFap3HK-60" value="console" style="text;html=1;align=center;verticalAlign=middle;whiteSpace=wrap;rounded=0;" vertex="1" parent="QgZdvH6-Uv-4IUFap3HK-59">
          <mxGeometry width="60" height="30" as="geometry" />
        </mxCell>
        <mxCell id="QgZdvH6-Uv-4IUFap3HK-61" value="" style="endArrow=none;html=1;rounded=0;" edge="1" parent="QgZdvH6-Uv-4IUFap3HK-59">
          <mxGeometry width="50" height="50" relative="1" as="geometry">
            <mxPoint y="25" as="sourcePoint" />
            <mxPoint x="60" y="25" as="targetPoint" />
          </mxGeometry>
        </mxCell>
        <mxCell id="QgZdvH6-Uv-4IUFap3HK-63" value="sum es 5&#xa;sum es 3&#xa;sum es 6&#xa;sum es 3&#xa;sum es 5&#xa;sum es 8&#xa;el resultado es 19" style="text;whiteSpace=wrap;" vertex="1" parent="1">
          <mxGeometry x="750" y="1020" width="130" height="120" as="geometry" />
        </mxCell>
      </root>
    </mxGraphModel>
  </diagram>
</mxfile>
